/* XPM */
static char *_4f868ea0ae74f54d8275931796957f7z6KCUGY7ly3IEGyJ[] = {
/* columns rows colors chars-per-pixel */
"64 64 17 1 ",
"  c #030200",
". c #030301",
"X c #020202",
"o c gray1",
"O c #040301",
"+ c #060201",
"@ c #040203",
"# c #070302",
"$ c #040402",
"% c #050402",
"& c #060503",
"* c #050304",
"= c #040404",
"- c #060405",
"; c #070604",
": c #070506",
"> c #080403",
/* pixels */
"============ooooooooooooo@@@****@@@@@***:*:*:*::*:*:*:*:*****:*:",
"============oooooooooooo@@@@****@@@@@**=***:*:*::*:*:*:*****:*:*",
"============oooooooooooo@@@@*****@@@@*******:*:**:*:*:*:*****:*:",
"============oooooooooooo@@@@******@@@********:*::*:*:*:*****:*:*",
"========oooo====ooooooo=@@@@@*****@@@@*******:*:*************:*:",
"========oooo====ooooooo=@@@@*******@@@@*******:*************:*:*",
"========oooo====ooooooo=@@@@*******@@@@@*******:*************:*:",
"========oooo====ooooooo=@@@@****:**@@@@@********************:*:*",
"================oooooooo@********:****@@*@@@***@*************:*:",
"================oooooooo@******::*****@@*@@@***@**************::",
"================ooo%oooo@****************@@@***@*************:*:",
"================ooo@oooo@******:*********@@@***@**************::",
"========================@****************@@@***@*************:*:",
"========================@******:*********@@@***@**************::",
"========================@******=@@*****:*@@@***@*************:*:",
"========================@******%@@****:**@@@***@**************::",
"********@@@@****%%%%%%%%%%%%%%%%%%%%%;%;%%%%@oo%@%@%%%%%@%%%%%%%",
"********@@@@****%%%%%%%%%%%%%%%%%%%%;%;>%%%%%%@@@@%@%%%%%%%%%%%%",
"********@@@@****%%%%%%%%%%%%%%%%%%%%%%%%%%%%o@%o@o@%%%%%o%%%%%%%",
"********@@@@****%%%%%%%%%%%%%%%%%%%%%%%%%%%%o%@o%%@o%%%%@%%%%%%%",
"********@@@@****%%%%%%%%@%ooo%%@%.%%%%%%%%%%o@%%o@%o%%%%%%%%%%%;",
"********@@@@****%%%%%%%%o%@%@@oo%%%%%%%%%%%%%@o@o%@o%%%%%%%%%%%%",
"********@@@@****%%%%%%%%o@%@%o@%@o.%%%%%%%%%%o%%@@%%%%%%%%%%%%%;",
"********@@@@****%%%%%%%%%@oo%@o%%%@o%%%%%%%%@o%%%oo@%%%%%%%%%%%%",
"****************%%%%%%%%@@%o%o@@%%%%%%%%%%%%%%%%%%%%%%%%%%%%%%%%",
"****************%%%%%%%%%o%@@o%o@o%%%%%%%%%%%%%%%%%%%%%%%%%%%%%%",
"****************%%%%%%%%o%o@@%o%%%o%%%%%%%%%%%%%%%%%%%%%%%%%%%%%",
"****************%%%%%%%%@@o%o%@@o@@%%%%%%%%%%%%%%%%%%%%%%%%%%%%%",
"****************%%%%%%%%%o@%o@%o@oo%%%%%%%%%%%%%%%%%%%%%%%%%%%%%",
"****************%%%%%%%%%@o%o%@o%%@@%%%%%%%%%%%%%%%%%%%%%%%%%%%%",
"****************%%%%%%%%oo@@@@%%o@%o@o%%%%%%%%%%%%%%%%@o%%%%%%%%",
"****************%%%%%%%%@%%o%oo@o%@o%%@o%%%%%%%%%%%%%%%%%%%%%%%%",
"..%.%%%%%@%@@##@o%%@%@@o%@@o@oo%oooooooo%o@@%%%%%%%%%%%%%%%%%%%%",
"=;.%%%%%%%%%####@@oooo%%oo%%%%@@oooooooo@o%o%%%%%%%%%%%%o%%%%%%%",
"==%.%%%%%%%%####%o@%@%o@@%o@o@%ooooooooo@%o%%%%%%%%%%%%%@%%%%%%%",
"==%%%%%%%%>@####%@o%@o%@@o%@o%@oooooooooo%@@%%%%%%%%%%%%%%%%%%%%",
"====%%%%%%%%####oo@%@%oo%%o@o@%%oooooooo@%oo%%%%%%%%%%%%%%%%%%%%",
"====%%%%%%%%>@##@%@oo%@%o@o%%@o@ooooooooo%@%%%%%%%%%%%%%%%%%%%%;",
"====%%%%%%%%>>>>%@%oo@%@@o@%%o@oooooooooo@%@%%%%%%%%%%%%%%%%%%%%",
"====%%%%>%%%>>>>oo%@%@oo%%@o@o%%oooooooo%@oo%%%%%%%%%%%%%%%%%%%;",
"====;%%%;%;%:>>>%%%%@@%o@%oo@%o@ooooooooo@@@%o@%%%%%%%%%%%%%%%%%",
"====.%%%%;%;>>>>%%%%%o%@o%@%@o%@oooooooooo%@@o%%%%%%%%%%%%%%%%%%",
"====%%%%;%;%>>>>%%%%o%o@o@%@%%ooooooooooo%o@@%o%%%%%%%%%%%%%%%%%",
"====%%%%%;%;>>>>%%%%@@o%%@ooo@@%ooooooooo@o%o%@%%%%%%%%%%%%%%%%%",
"====%%%%;%;%>>>>%%%%%%o@o@%%%@@ooooooooooo@%o@%%%%%%%%%%%%%%%%%%",
"====%%%%%;%;>>>>%%%%o@o%%@o@oo%%ooooooooo@o%o%@%%%%%%%%%%%%%%%%%",
"==..%%%%;%%%>>>>%%%%@o@%%o@o@%o@ooooooooo@@@@@%%%%%%%%%%%%%%%%%%",
"==;.%%%%%;%%>>>%%%%%%%@o@o%%@oooooooooooo@@@%oo%%%%%%%%%%%%%%%%%",
"%%==--**--------o===ooooooooooooooooooooo%%@%@@ooo@%%%%%%%%%%;%;",
"%%:=--**--------====oooooooooooooooooooo@@oooo%%@%@o%%%%o%%%;%;%",
"**:=--**--------====oooooooooooooooooooo%o@%@%o@%@%o%%%%@%%%%;%;",
"**::--**--------====oooooooooooooooooooo%@o%@o%@oo%@%%%%%%%%;%;%",
"**----**********====oooooooooooooooooooooo@%@%oo@%o@%%%%%%%;%;%;",
"**----**********====oooooooooooooooooooo@%@oo%@%@o%@%%%%%%%%;%;%",
"**=---**********====oooooooooooooooooooo%@%oo@%@%%oo%%%%%%%;%;%;",
"**:---**********====oooooooooooooooooooooo%@%@ooo@@%%%%%%%%%;%;%",
"****----********========oooooooooooo%.%.o@%%%%%%%@%%%%%%%%%;%;%;",
"****----********========oooooooooooo.%.%%@o@%%%%oo%%%%%%%%;%;%;;",
"****----********========oooooooooooo;.%.%o%%%%%%@%%%%%%%%%%;%;%;",
"****----********========oooooooooooo.%.%%%%%%%%%@o%%%%%%%%;%;%;;",
"----************========oooo.=oo.....===%%%%%%;%%%%%%%;%%;%;%;%;",
"----************========oooo==oo....====%%%%%;%;%%%%%%%;%%;%;%;;",
"----************========oooo=.=.....====%%%%%;%%%%%%%;%;%%%;%;%;",
"----************========oooo=.=.....====%%%%;%%%%%%%;%;%%;;%;%;;"
};
