/* XPM */
static char *_45409b677aa4e9e8460a6b071721ac944FBUtzU6NqySiie[] = {
/* columns rows colors chars-per-pixel */
"50 50 120 2 ",
"   c #00322B",
".  c #003D36",
"X  c #003D3A",
"o  c #00423D",
"O  c #004543",
"+  c #014945",
"@  c #004749",
"#  c #024C4A",
"$  c #0A4E4D",
"%  c #02514D",
"&  c #0A534E",
"*  c #014F51",
"=  c #035453",
"-  c #0A5553",
";  c #065A55",
":  c #0B5A55",
">  c #065758",
",  c #0B5759",
"<  c #055B5A",
"1  c #0C5C5B",
"2  c #145755",
"3  c #125A56",
"4  c #145D5A",
"5  c #1B5E5B",
"6  c #215F5E",
"7  c #07615F",
"8  c #0E625D",
"9  c #13625E",
"0  c #1A625E",
"q  c #20625E",
"w  c #0F5E62",
"e  c #076362",
"r  c #0D6364",
"t  c #0F6866",
"y  c #0E6A6A",
"u  c #146463",
"i  c #1B6563",
"p  c #156A65",
"a  c #1B6A65",
"s  c #146668",
"d  c #1B6669",
"f  c #146B6B",
"g  c #1B6C6B",
"h  c #14726F",
"j  c #1C726D",
"k  c #1D6E71",
"l  c #157572",
"z  c #1D7473",
"x  c #157974",
"c  c #1D7A76",
"v  c #1F7778",
"b  c #167B78",
"n  c #1D7D7B",
"m  c #216765",
"M  c #286661",
"N  c #226B66",
"B  c #226669",
"V  c #246C6B",
"C  c #2A6D6C",
"Z  c #23726E",
"A  c #2A726E",
"S  c #31736E",
"D  c #266E71",
"F  c #2A6E70",
"G  c #237473",
"H  c #2B7473",
"J  c #237A75",
"K  c #2B7A75",
"L  c #257678",
"P  c #2B7678",
"I  c #247C7A",
"U  c #2C7D7A",
"Y  c #327574",
"T  c #387675",
"R  c #337A76",
"E  c #387C76",
"W  c #327779",
"Q  c #337D7B",
"!  c #3A7C7B",
"~  c #1D817E",
"^  c #2D8076",
"/  c #23837D",
"(  c #2C837D",
")  c #23897E",
"_  c #328077",
"`  c #34837D",
"'  c #3A837E",
"]  c #34887E",
"[  c #3C887E",
"{  c #40807F",
"}  c #277F80",
"|  c #297F80",
" . c #1F8581",
".. c #1F8883",
"X. c #238482",
"o. c #2C8581",
"O. c #268984",
"+. c #2C8983",
"@. c #2D8D89",
"#. c #348482",
"$. c #3B8582",
"%. c #348A84",
"&. c #3B8A85",
"*. c #3D8788",
"=. c #358D89",
"-. c #3B8D89",
";. c #2F9087",
":. c #36918A",
">. c #3C928C",
",. c #3F9592",
"<. c #418383",
"1. c #418A85",
"2. c #498D85",
"3. c #428D89",
"4. c #449086",
"5. c #44918D",
"6. c #48928C",
"7. c #449491",
"8. c #469992",
"9. c #499B95",
/* pixels */
"Y R R A + O w P F | B F F W W J H + + 9 g f X.n n n I / Z + & C T <.! $.4.-.&.[ 6.C $ + 0 z G L L P ",
"Y Y Y - + # k P W B B Y F W H H # o 4 g s o.v l v v U j # + S E ' Q $.3.&.&.&.2.A + o 3 g K z L L H ",
"Y Y - + g p u G g d W D F H F # . 3 a g J l y h z I f @ # E [ R 1.' *.6.3.&.1.U o % 9 0 D L G L H P ",
"! 9 + J ( z I s r L d D P B , 4 - # N g f p h j v s @ # R &._ _ <.' 5.3.&.5.` + o 8 p Z L D L L P H ",
"0 O g ( I I n x s s L G d - 5 | m o % N p r j J V O @ F 6.R Q &.` $.6.&.6.| * * p 0 p K G z L L R K ",
"# 7 v / / n n l y t f s $ , $.H A C % % p j j a # O B R $.' ` 1.` 3.5.5.| - @ s p j v j g G L L H G ",
"f o.I X.X.b y h I r < * u U H C ! *.Q # # Z a + X m ! <.{ H ' &.$.4.3.| 2 @ f w h j j g v G L P G 3 ",
"@.@.I X.n n v n l s * D Q D U *.' ' 3.` o % # o 2 T T <.R Y 6.Q 3.6.W * * s s f h f t z z g U L % 1 ",
"@.I X.n v n n z s * k | P #.*.$.<.3.! <.6 X X $ Y <.! ! Q ! $.' $.N + = r t y f s s f z z L L = p / ",
"/ I / c z o.v f # d W | $.#.$.` 3.$.1.{ O X 2 M ! ! ! <.$.$.$.! 0 o % 8 t t r f r s k k L z = w / +.",
"/ / ~ / o.z g @ d $.*.| #.$.&.$.! &.C O X 6 C T ! <.Q $.1.#.P i O % u r e e t y f k k P k = < o.@.:.",
"O./ ( I L f @ d #.<.| ! $.*.` W ! H $ X 6 S T { ! ! ! $.*.H u O o ; 8 1 e t f r k k z s < w %.@.+.%.",
"/ ( / I u + g #.Q | #.#.| ! ` 1.1.$ . 5 Y T | T Y Y 3.*.! 9 O = - O % 8 r r u f f k s * g %.X.@.=.( ",
"+.( ^ g # p $.U #.$.Q $.$.2.2.Y o o q Y T T ! T W <.3.! u # = p j ; # < w r s k f d = G %.U -.=.%.( ",
"] U u + u #.#.( Q ` #.&.$.R m @ X M E T ! T C T <.{ R m + % G p j G * * w s s w u = z =.z o.8.%./ ^ ",
"Q a # p &.U U #.$.#.U Z A 0 X X 2 S S Y T C F <.<.| i + % I z c v v v = * < 1 u % G =.K %.7.@.J #.] ",
"V @ g #.( ( ] ^ U N R A : O & # + M T R M Y ' { E M o 8 c h / j z n j j 9 # $ # G &.J ` 7.%.c ( ] [ ",
"@ d $.` ` A ] U ' &.' m O = Z g @ 2 Y B Y { ! ! C O ; ~ ~ ~ ) ~ / I h c J > X H &.H &.7.] G ( ( ] S ",
"5 | ! U ^ ] R U A H 3 X # V U K Z + $ H E ! R A o ; / ^ c / / / / / z J 8 o Z #.U 7.3.%.o.#.( $.[ 9 ",
"W *.` #.U H Z Q 1.N X # g #.Z J #.9 o O C Y N + ; ( / c ( ( +./ / g U u o j o.%.7.$.#.-.%.U -.-.- + ",
"#.| ! #.Q A H ! i o # V #.I ^ / J ^ 8 o o 9 + ; ] ~ ) / ( =.+./ J ` g O r ( >.:.%.` -.o.o.=.$.1 ; Z ",
"U #.#.! H Y ! B X & A ] U ^ / I ^ ( ^ 9 o o ; ( ~ ) O.@.+.+.%.I U Z o 1 #.:.=.( ] =.%.U $.| 1 : G ' ",
"#.U W K ! Y m o 4 K &.U ( ( ( / +.( J 9 + 8 ( / ) +./ +.:.%.( U g o 8 =.:.^ K ( @.%.( %.*.w @ L U U ",
"H ` K ! R V o 5 Q ] U ^ ( ( J #.) K 0 o ; J / O.) +.+.@.%.%.^ u o = ` -.U ( ( %.( %.o.#., @ d L L U ",
"G R R ! m O 9 Q ] Z ^ ] ^ ( %.U ] ^ + % c ^ O./ +.+.@.>.@.( p o # j #.( U -.#.#.o.U %., # u L L G A ",
"R Y ' m O 4 ' [ J ^ ( ( ^ :.] -.#.o % j ) @.O./ o.%.>.>.K % o - U #.U ( %.U ! R Q I = @ d z L D H B ",
"R ! m + : [ %.^ ( %.^ ( %.^ &.U # % c ( / / J ^ ( =.-.Z ; + - U | U | #.Q U U | | - O p k z z P G V ",
"! C o O K [ J ( %.( ] &.%.&.U + = p j x c / +.#.&.%.j 1 # 1 &.^ U %.#.Q #.G | | = @ d G z k k U V H ",
"S o $ A &.] ( %.c ] &.>.>.Z o # u g v I ( +.^ ^ ^ j ; o - $.U U o.| U | z #.Z > X @ u d g g K V V R ",
"o o A 4.' ] %.J ^ [ &.%.j o 8 a G I I / ( ^ J U a % + % # p #.#.L P | L #.U = = , @ O V g G d p Q H ",
"o ' 6.] >.%.^ ] &.>.^ 0 o 8 J c c v I ] J J ^ j ; o g 1.8 % P G | | L =.U 1 > g G u , = 1 g d U Y 4 ",
"{ 6.[ >.[ [ >.:._ K a + ; Z j j c v I G Z [ ^ % o N 8.&.I = w #.L k P | s = s I J J U u + 0 H R 4 X ",
"{ { { [ #.%.] ^ ] N + o : Z g j j j G L $.Q - o 9 8.:.+.-.%.8 > g K #.d # d I v v L K j 1 % Z 3 o E ",
"{ { [ ] ] ] ^ ] 0 + o $ o - 1 p z j K ] Y & o 0 8.8.%.>.=.>.-.u 1 ] p > k U I } I I G p K a o o _ { ",
"[ ] [ ] %.&.>.K + & 9 0 5 @ 1 H J ( A H 4 X a 9.>.:.>.:.=.-.,.*.u ; 1 h I I I z | I f J %.N + 0 S S ",
"{ { [ ] &.3.K O & a 3 0 5 4 @ u G Z U d O a 8.5.>.,.>.:.,.` U #.u = j ( / G z c I z I %.a o 0 _ [ [ ",
"_ _ [ _ 4._ @ $ N 0 d 5 d m d - 4 Q u o a 8.>.>.:.:.:.%.] #.,.G u G I n n v v c / ( :.a o 3 ' { { { ",
"{ [ ] ] A o > H p i d V B B ! B $ : + a 8.8.,.%.] [ &.:.,.-.Z > v I v n c c / ^ / ( 0 o 9 E 4.{ ' _ ",
"^ [ [ ^ # : H V B V B m B Y V C $ X u 8.>.%.#.] >.&.>.%.o.t = c X.n n } / / ~ ) ( 8 o m 4.{ [ [ [ ' ",
"[ [ ^ o ; G H d D B V B W C V * o a >.>.] ] ] %.( K %.J = = I I n X.} I n / / %.0 o & 1.' ' [ _ R _ ",
"[ 0 % & z L d D d D F T C H m # 9 -.7.-.,.#.5.=.5.3.| # =  .b b  .O.n n @.+.#.a o + S [ [ [ Z _ [ [ ",
"N + # j I k k g D F C F F C % 4 #.7.-.-.5.-.-.=.#.G # > I } b .. .n X.@.O.%.u X o o 0 { _ Z _ ^ _ 4.",
"o % g G G g G G | B F C A # 9 ( -.=.-.-.%.-.=.=.U O * z n n  .b  . .O.o.( p X 4 _ & o 9 _ [ _ _ A A ",
"& Z G K z L g U W B S F O i $.-.#.>.-.>.-.U #.G , # s I n n } ..O.~ O.:.j X : ! &.Z o o 0 [ Z N ' 9 ",
"A Z G G L G G H V C Y + 4 1.-.#.7.*.*.U g ( U < = k I b b } X.O.) ( :.j @ & <.$.] a _ 8 o 3 N [ 3 o ",
"A A W G G D K V V Y + 4 1.$.#.$.| 3.o.G G ( r = z I h l .. .X.X.O.:.j o $ | <.3.^ ^ ] ] :   o & o 3 ",
"H P V Q H P A A A $ 2 $.$.Q ! *.*.| U Q L r = l b h y h } ..X.X.;.a o : Q $.$.$.^ ( ] ^ ] 9 o o 1 Z ",
"H P H G Y Y Y A + # $.` W ! 3.Q #.K Q U u + y l h h l }  .n } +.j o ; R ! $.*.` #.] ) ] ] N o 0 N Z ",
"P C Y H H ! C @ @ Y ' R Y R R ` Q W H 1 O 1 v l x b X. .b O.+.z o : _ ^ 1.1.$.&.#.#.%.( 1 O - g G K ",
"H W U H T i O O S { R A H Y Y Q Q ` 0 o - j h c n n n n  .X.f O & R [ ] 1.$.=.#.%.#.o.w @ = d G G K "
};
