/* XPM */
static char *_ea265d8d04f4be79ac7d2f923cd326ah5y6kb5NIZo4xaG1[] = {
/* columns rows colors chars-per-pixel */
"50 50 72 1 ",
"  c #834515",
". c #864817",
"X c #844619",
"o c #864A1C",
"O c #8A4C1D",
"+ c #8D501E",
"@ c #8B4E21",
"# c #8E5224",
"$ c #8F5428",
"% c #925425",
"& c #955827",
"* c #935629",
"= c #965A2C",
"- c #9A5C2D",
"; c #965C32",
": c #9A5E32",
"> c #965F38",
", c #985E38",
"< c #A05D30",
"1 c #9E602F",
"2 c #9D6134",
"3 c #9D6239",
"4 c #A0612E",
"5 c #A26435",
"6 c #A56937",
"7 c #AB6C37",
"8 c #A46639",
"9 c #A6693A",
"0 c #AB6D3C",
"q c #B16F3E",
"w c #AE703E",
"e c #B2723E",
"r c #AD6E41",
"t c #B26F42",
"y c #AF7142",
"u c #B37543",
"i c #B87644",
"p c #B77845",
"a c #B97A46",
"s c #B57749",
"d c #B67949",
"f c #BB7B4A",
"g c #BC7E50",
"h c #C17F4D",
"j c #C17E51",
"k c #BE804E",
"l c #BE8151",
"z c #C1824F",
"x c #C38454",
"c c #C68857",
"v c #C98A56",
"b c #C68759",
"n c #C78959",
"m c #CB8C5B",
"M c #D18E5A",
"N c #CF905D",
"B c #D2935F",
"V c #CE8E62",
"C c #CF9162",
"Z c #D39463",
"A c #D89666",
"S c #D69866",
"D c #D89A67",
"F c #D59668",
"G c #D79969",
"H c #DB9C6B",
"J c #DE9F71",
"K c #DFA16F",
"L c #DFA171",
"P c #E1A26F",
"I c #E2A373",
"U c #E7AA79",
/* pixels */
"iifzffhhkupk6+&=>>>>;*$ssiaiahhhhhehees==;:2-2===2",
"ppSHHHJAGkueee&o=22=@8rrsieevPJAHDPviayr9@#2,;o$0y",
"kvppusssklnnlw62=$$129ykiiamfutusudlvcvsy2;*%:;8su",
"NH1-::=-1CLLNkuw#+o+upuyfufPs*-:::$gIIIfyw2O@orspd",
"VZ0-:,::;31#2dsi00w6k0duudkKa:-;:,;:3&*ypau675ftpp",
"mG9:::,,3;$$-duapw0kukkkkwdKd;;2>>22=&+pdppesaffaa",
"nH::,,,,;$$rudieBDDSSFFGSukLd=2::32=O6yuauxKHHFJHK",
"nn8*-,<,2##yyihzkklkkkddpwdm0*==>3;;@9wpdxzxfggsdp",
"e6@O@#;,:#@0tiMK5*-:*-<oOpp9-oo@<8:=X7wekHf%:;==-$",
"ii60r,$$*87uqiMD6-::,:8%#upy00r8%O#=7tupkZx::=,>:=",
"aaryt8@%%6uahevH8;,::,,@%udptqst#%%-tasifHl*:8>2:;",
"uuuustrr7auuqquu*@:,:28%+uddittsu00esuieuy8@*;;2:;",
"zxclxfuuusevzvdr;*;,;;*=-udfhbbjywppehbjxs8*1;==$=",
"mSKKImseuupDIHxrs6#oOOo6yuxKIJHHafweqZKJZsry=o@o#=",
"auyyufmzuvvuwscVau6586:ssmn00istvzszZiutfVbs925326",
"w---*dIxaBZ--&xHgee00uyydJm%5=&-ZBixH7-&8JVyuywuys",
"2=2-O-spuAZ@@@@%uieieeeNC3::::$%ywpvK1++#*-dpupuuk",
"32;;$:uyfcb-=*-#yfaekeeKG2=3:$2%wwafN6*-*$3dfeappk",
">2@#duupu00r0tyyuipepkeZC223#@6yyddyw0wyy0uuapeppk",
"==39ydmxnlxrsrgxvvpapeplc-*$:20sbmclldsyubbnaaeauk",
"oO9wwxIKLPHpydZIJGuwdpaw2@OO50upHKLHUlyylJJUheieee",
"9yplSv15-%%dlGd250Gmuppdd077yuNZ622&=9dFn2-<zApaap",
"uwwkSa&1-#=uxHu-:-Znpdyapw7wepNN11=&.wpSV%:=xZsfpu",
"ufppe4+O+7wixLy-:::rLnaupiauppe9&+.1eppDm:::-5SAkp",
"auaiu7---yyukd6-2=18cu1pepaaaeee4446eeaky1;2;;ld1w",
"ep0eusupssdd6 &2-3321Oowaeaaeeaeuuepaae+#13;2222+&",
"ppZCCCCZCsdsu91+2;-=#17ppeaecSBBZBZxeekw2#=23;@*6w",
"ppZAFGGFFgsdpy&#-=2-#1uupaeevZCKGGAnppee8+*2;=**wy",
"mA5:::::5CHJmdy9=#O$yydaeekSd121-2:dSSHsuy3O%%5rpp",
"mG<-<2::,xnlluud-==3puppeekPp&222,=rmcxayd0%==0fpp",
"ZZr=-::8=::o=fdu990ywueeaaaKd;:>>>2=-#Oefas766ieww",
"VH8:::-:2**86fssmmbVCNNBvefHs;:>>>3-*25ssufnNmvmNm",
"mJ8:23;3:#$yysywKKKLLLJJGfaLd-3,,,3;X0yuatbPHIHKKL",
"uy##@;,:>##rypvD0112,38**ssa5#@@,,,=X0rshDh<55-5-1",
"r0%*==--==;rupvK6*=2;-:##dpw<%*&::=-*70ufHh&:--:;-",
"afuyu2O+#6uaueNK3;22:,2%$ypaittto@@:0ssihAx:<:8=;=",
"auutu7-1-0uuppzf3$;>;38@+upepeei5:-6usppfxr@::,,2;",
"ftusuuw0uieieeee@@2322:#%uuieequ0ewiiiue0r:@*8,:=;",
"VFAAZviieefZAAhu9r$@@##96plZSSASapseuvZSVsrr;$@*$=",
"vVVVVviappxMVZjfsr*=*##9udkSBBMZaaaspNBNmfss=*$%#-",
"s&-&&iHxpBN1--bJguur000dsKN&1$11AVuvDe&&7HCyyyrywy",
"822-&0maeZC&-&yliiuuuryklld$1211xjsjI6--8fppypyyia",
"=2:-@&tuaSC#@@o eieapppZF2;13=$+0tfmU-o..o-pepddaz",
"32#:80sidad88r98qhaeiueSC222=@33susuf098787ikkwpez",
"22#*rsfsswwwy9yypfeieppNZ21;=O9ysssiwyww7sqiepppev",
"@$9yuxJJHLSayunSHBpaaepwy#@@3udsFFHHHkwpfHHPkpkeea",
"*$yshjmvmxkaakxNvxckeppw0**-80fzvmNxxkpllvmvzzepee",
"yyplKb&<<O%ukKy&&5KBeeufduy9seAD1&-%o9dSm--&vKaehe",
"upekke%%%56izHq-:-ifMaheeihqihha&&%&5eaAm-:<rqmvea",
"eeeee4OO@67ehHq%<-&5Hxe7eeqqe777+O+-qeiBv-:=:-MZee"
};
