/* XPM */
static char *db55ab6083c0439f864d0349e4f0d067ubn7znybdmGdjl75[] = {
/* columns rows colors chars-per-pixel */
"50 50 110 2 ",
"   c #030101",
".  c #090305",
"X  c #0C0608",
"o  c #0D090A",
"O  c #120B0D",
"+  c #130F10",
"@  c #131011",
"#  c #181214",
"$  c #1E1A1B",
"%  c #221D1E",
"&  c #251E20",
"*  c #252122",
"=  c #2A2526",
"-  c #2E2528",
";  c #2E2A2B",
":  c #30272A",
">  c #322C2D",
",  c #332F30",
"<  c #363233",
"1  c #3A3537",
"2  c #3F3A3B",
"3  c #423C3D",
"4  c #453E40",
"5  c #483F42",
"6  c #464142",
"7  c #4B4446",
"8  c #4A4947",
"9  c #4B4748",
"0  c #534D4E",
"q  c #52504F",
"w  c #555252",
"e  c #5A5555",
"r  c #5C5658",
"t  c #5D5A5B",
"y  c #625C5D",
"u  c #645F61",
"i  c #656263",
"p  c #696566",
"a  c #6A6768",
"s  c #6E6B6C",
"d  c #706D6E",
"f  c #726F70",
"g  c #747272",
"h  c #797577",
"j  c #7A7778",
"k  c #7C797A",
"l  c #817C7D",
"z  c #847E80",
"x  c #858383",
"c  c #898586",
"v  c #8A8987",
"b  c #8A8788",
"n  c #8C8A8A",
"m  c #918D8E",
"M  c #92918F",
"N  c #928F90",
"B  c #949293",
"V  c #999597",
"C  c #959897",
"Z  c #979699",
"A  c #9A9798",
"S  c #9D9A9B",
"D  c #A19C9D",
"F  c #A4A09F",
"G  c #A29FA0",
"H  c #A5A4A5",
"J  c #A9A5A6",
"K  c #A6A8A7",
"L  c #A9A8A6",
"P  c #A6A7A9",
"I  c #ABA7A8",
"U  c #A7A9A9",
"Y  c #ACACAC",
"T  c #B1ADAE",
"R  c #AEB0AF",
"E  c #B2B1AF",
"W  c #B1AFB0",
"Q  c #AFB1B0",
"!  c #B4B3B3",
"~  c #B9B5B6",
"^  c #BCB8B7",
"/  c #BBB7B8",
"(  c #BCBABB",
")  c #C1BCBE",
"_  c #C2C1BF",
"`  c #C1BFC0",
"'  c #BFC1C0",
"]  c #C4C3C3",
"[  c #C6C8C7",
"{  c #CCC7C9",
"}  c #C7CACA",
"|  c #CACBCB",
" . c #D1CDCD",
".. c #D2D1CF",
"X. c #D4D3D3",
"o. c #D9D5D6",
"O. c #DDDBDC",
"+. c #E1DCDE",
"@. c #E3DFE0",
"#. c #E5E3E4",
"$. c #E9E5E6",
"%. c #EAE7E8",
"&. c #EBEAEA",
"*. c #F0EEEF",
"=. c #F2EFF0",
"-. c #F4F3F3",
";. c #F9F5F5",
":. c #F9F8F6",
">. c #F9F7F8",
",. c #FFFCFC",
/* pixels */
"< O.| | | } | } | } [ | | | | [ [ | [ X.C   Q ..} } } } } | } | } | } | } [ } | ..} X p X.| } } | } ",
"; ~ I L L Y U U P Y U P H U Y Y Y Y L E x   G U U U Y Y Y L U L Y H L U Y Y L H H ~ . y ! R L Y Y U ",
"< ( I T W Y Y Y Y Y Y Y W Y I I Y I Y ! z   Z ~ Y R Y Y Y Y Y Y Y R R U Y Y Y ! T T . y ~ U Y Y Y Y ",
"; ! ! T I Y ! Y Y Y ! W Y Y T T T W W ! x   H Y Y Y Y Y Y R Y Y Y R U R Y Y R Y T ! . y ~ Y ! Y Y W ",
"> ) T I Y W Y T Y Y T I I T T I Y I Y / c . S ~ T T Y W T T T T ! Y R Q Y Y ! Y T W . y ! T Y Y Y W ",
": E J H I H H H H Y H J I J F I I I J H l . V I J J I J J J J J H H H F H Y F L G I O y E H H H I H ",
". .   .             . . . . . . .     .   .     .                       .       . . . . .     . .   ",
"0 w w w 0 q w w w q 0 w 0 e 8 o 2 r w 0 e w w w w q w w w w w w q q w r * % r q 0 e 0 0 q q w q w q ",
";.:.:.:.:.-.:.:.-.-.-.-.;.,.@.. Z ,.-.>.;.>.>.>.;.-.>.-.>.-.>.-.;.:.-.,.y 3 ,.;.;.:.;.;.:.:.-.-.;.>.",
"_ _ _ _ ] [ ' [ [ [ ] ] _  .) . l  .` ] [ ` ' ] ] ] ] ] ] ] ] ] ] ) [ ..8 ,  ._ _ ] _ ] _ ] ] ] ] ] ",
"L L T L U U U U R K L R F Y D . d Q Y U Y J U Y Y U Y Y Y U R U Y ! U ! 7 : E J T I I Y Y U Y Y Y U ",
"Y T Y E U R R R Y R Y R Y E F . d / W U W Y W Y W Y Y Y Y R Y Y Y Y U / 3 : ) T Y R Y Y R R Y Y Y Y ",
"Y Y Y Y Y Y R R L R Y Y Y W D . f ~ P Y Y Y Y Y Y Y Y Y Y R U U R L Y ( 5 > ~ Y Y R Y Y R R U Y Y Y ",
"~ ~ ~ ! ! ! ! ~ ! Q ~ ~ ! ~ H . g ( ! / ! W ! ! ! ! ! ~ ~ ! ~ ~ ! ~ ! ' 7 : / Q ! ~ ~ ! ! ! ! / ! ! ",
"C C C V C C C Z Z Z S Z V D b X a S S Z C V Z Z C Z Z A Z Z C C C C C S 3 : G V C C C C C C C C Z Z ",
".                       .   . .                                         . .                         ",
"f f h h s o 9 j g f g f g g g g g g g g g g g g d k > # j f f h g f g f g g f f g f f g g g h t   s ",
"-.&.=.=.%.o V ,.=.-.=.-.=.=.=.=.-.=.-.=.=.=.=.=.-.,.0 , ;.=.&.=.=.=.=.-.=.=.=.=.=.;.=.=.&.-.-...  X.",
"` ` ` ` ( o g { ` ` ' ` ' ' ' ' ` ' ' ' ' ' ` ` ' { 4 & ] ) ] ] ` ` ] ` ` ` ` ` ' ` ' ) ' ] ] G   R ",
"Y Y P Y H + s W Y Y Y Y U R Y Y I I Y Y Y Y Y Y P ) 3 & / I Y P Y Y Y Y Y Y Y Y I Y Y Y Y Y R B   S ",
"Y Y Y W P . s ~ Y Y Y Y Y R U Y Y Y Y Y U Y Y I W / 6 & W Y W W Y Y T I Y Y Y Y Y Y I Y Y T R M   F ",
"I W Y Y P @ a ! W Y Y W Y Y Y Q Y Y W Y Y Y Y Y W ~ 6 $ / W J Y Y Y Y T T Y Y R Y W Y Y I ! E m . S ",
"! ! W ! Q o s ( W ! W W Q Q Q Q W W W W W W W Q W ) 4 = ( Y ! Q E E E E E E R E Y W W T E ~ / C . F ",
"N N N Z n o i Z N N N N B M B B N N N B N B N B V A 1 % Z Z N B M M M M M M M M N B B B M n B l . x ",
".                                         .   .                                       .             ",
"& V n m n n n n n v v v n v v v n n x N s   z b n n n n n n n n v v v v v v v v v M o 8 M v x n v v ",
"6 ,.%.%.%.&.%.%.&.&.&.&.&.&.&.&.#.&.*.-.T . o.=.%.%.%.&.&.%.%.%.&.&.&.&.&.&.&.%.*.&.X k -.&.*.$.&.&.",
";  .) ~ ' / / ' ( ( ( / ( ( ( ( ( ( ( ( n   T ( ( / ( ( ' / ( / ( ( ( / ( ( ( ( ( '   i ] ~ ( ( ( ( ",
", / Y Y U Y I Y U Y U Y Y Y U Y U Q Y Q z . S W U R Y U U R U Y U U Y U Y Y Y Y Y Y X t ~ Y I I Y Y ",
", / Y Y U Y Y Y Q Y Y Y Y Y Y Y R U Y ! b . S W Y Y Y U Y Y Y Y Y R Y R Y Y Y Y Y !   r ~ T T W Y R ",
"; ) Y W Y R Y Y R Y Q Y Y R Y Y Q U Y ! z . G Q Y Y R R Y Y Y Y Q Y Y Y Y Y R Y Q !   i ^ T Y U Y Y ",
", ` ! ! ~ ! ! ~ ! ! ! ! ! ! ~ ! ! ~ ! / b . H / ! ! ! ~ ~ ! ! ! ~ ! ! ! ~ ! ! ! / ! . y ^ ! ~ ~ ~ ! ",
"& z j j j k j j j j h j j k k j h h k k y . s k j h h j j j j j h j j j l f l h l l X 6 k j j h h j ",
". . . .             .       . X . . . . . . . . .                       . . . . . . . . .   . .     ",
"m c m b b m n n n b b n m m l . r B b n c n c x n n n n n n n n n b n B 3 & N m x m m c n n c n n n ",
"@.%.$.$.&.%.%.%.#.&.#.%.$.%.+.. A =.%.$.&.#.&.&.#.%.%.#.#.%.%.%.%.&.&.,.r 3 ;.&.$.&.+.&.%.$.$.&.%.%.",
"~ ~ Q ~ ! W ~ Q ! ! ~ ! W ~ T . h ( W ! ~ ~ Y ! ! ! ! ! ! ! W ! ~ Q T ` 7 : ) W ! W ! ! ! ~ ! Y ! ! ",
"P U Y W P Y Y J Y H Y I W W D . s ! Y Y U Y Y Y U Y Y Y Y Y Y Y U Y Y / 5 , ! W H W Y Y Y H W Q U Y ",
"W Y U Y Y W J W Y Q T Y T ! D . g ! ! I Y Y T T Y Y Y Y Y Y Y Y W Y I ` 4 ; / J ! I U ! Y W Y Y Y R ",
"U W Y Y Y Y Y Y Y Y I T I ! D . g / I Y Y Y T I Y Y W Y Y Y Y Y Y W Y ( 4 > / W Y Y Y Y Y Y Y Y Y Y ",
"~ ! ^ ! ! ! ! ~ ~ ! / / ! ~ I X g ) ~ ! ! / ~ ! ! ! ~ ~ ! W / ~ ~ ) ~ ) 0 > ) ~ ! ~ ~ ! ! / ! ! ! ! ",
"a u i i i i a i i a i i i i e X 7 a i a i i i i i i i y u a y i y y u p : & u y i i i i i i i a i i ",
"  . . . . . .     .     . . . X . .   . . .   . . . . . . . . . X . . . . . . . . .   .     .   . . ",
"Z S A A A O y H S Z S Z V V V D D V Z S A S S S D D 3 & V V D V D A V D D D D V S A Z A C S G k . n ",
"#.#.#.$.+.X c =.#.+.#.#.#.%.$.@.#.#.#.#.#.#.#.#.$.-.w : *.$.@.$.+.#.#.#.#.@.$.$.%.#.#.#.%.%.%.'   | ",
"Q ! W W I @ f / Q ! Q Y Y T ! T W ! Y W ! W Y ! T ) 3 % ( W T W T ! E T W W Y ! Q Y Q Q W Y ! B   G ",
"Q W I T I . g Q Y Y R Y Q Y I Y Y Y Y Y Y Y U Y Y / 6 * ! W Y Y R Y T Y Q Q U Y W U Q Q Y Y Q C   G ",
"Y Y Y T Y o a ~ Q Y R Y R Y Y W Y Y R Y Y ! Y R Y / 6 * Q W Y Y Y Y R Y Y Y W Q Y Y ! U U Q Q m   S ",
"Y Y Y Y Y X s ~ Y Y Y U R Y Y Y Y Y Y Y Y Y Y Y Y / 6 & ! Y R Y Y Y R Y Y Y Y Y Y Y Y Y Y R Q M   G ",
"Y Y Y Y I X s ! Y Y Y Y Y Y Y Y Y Y Y Y Y Y Y Y Y / 6 & ! R Y Y Y Y U Y Y Y U R Y R Y Y Y R R M   G "
};
