/* XPM */
static char *_e157e1e0d894af6d10d2c4f6e7015a2OvlagfI0sa1eUW4N[] = {
/* columns rows colors chars-per-pixel */
"50 50 161 2 ",
"   c #07295E",
".  c #0A295E",
"X  c #0D2D63",
"o  c #0D2E69",
"O  c #122E64",
"+  c #122F68",
"@  c #0D3165",
"#  c #0E316A",
"$  c #133165",
"%  c #193567",
"&  c #13336B",
"*  c #19366B",
"=  c #16396E",
"-  c #19396F",
";  c #0E3371",
":  c #153572",
">  c #193671",
",  c #153972",
"<  c #1C3C74",
"1  c #173A79",
"2  c #1C3E7A",
"3  c #20396F",
"4  c #213E76",
"5  c #203F78",
"6  c #1E4176",
"7  c #1E417D",
"8  c #234176",
"9  c #24447C",
"0  c #29457B",
"q  c #26497D",
"w  c #294A7E",
"e  c #31487E",
"r  c #1E3F82",
"t  c #1E4281",
"y  c #234583",
"u  c #294683",
"i  c #264983",
"p  c #2B4B83",
"a  c #254689",
"s  c #264A89",
"d  c #2C4D8B",
"f  c #324E85",
"g  c #394E86",
"h  c #324E8A",
"j  c #2E5186",
"k  c #2D528D",
"l  c #325186",
"z  c #395387",
"x  c #34538C",
"c  c #3A558D",
"v  c #35598E",
"b  c #3B598D",
"n  c #334F90",
"m  c #2E5491",
"M  c #345592",
"N  c #3A5692",
"B  c #355994",
"V  c #3C5B94",
"C  c #385798",
"Z  c #365B98",
"A  c #3C5A99",
"S  c #385C98",
"D  c #395D99",
"F  c #3B5E98",
"G  c #3A5C9B",
"H  c #3F5C9E",
"J  c #3C5D99",
"K  c #3E6196",
"L  c #3D629B",
"P  c #395FA0",
"I  c #3F63A1",
"U  c #435A8D",
"Y  c #495E8D",
"T  c #425790",
"R  c #405B90",
"E  c #405B92",
"W  c #435C92",
"Q  c #455C92",
"!  c #445D93",
"~  c #475E92",
"^  c #425D94",
"/  c #425C95",
"(  c #405D97",
")  c #445F94",
"_  c #465F97",
"`  c #435D94",
"'  c #495E92",
"]  c #415E98",
"[  c #445E99",
"{  c #425F98",
"}  c #495F98",
"|  c #426094",
" . c #436195",
".. c #426197",
"X. c #476597",
"o. c #436196",
"O. c #4A6195",
"+. c #486197",
"@. c #4C6397",
"#. c #4A6295",
"$. c #466198",
"%. c #43619D",
"&. c #44639B",
"*. c #486398",
"=. c #4A6399",
"-. c #48639A",
";. c #4C6399",
":. c #4E6398",
">. c #49679B",
",. c #4D649A",
"<. c #49679D",
"1. c #4C659D",
"2. c #4E679D",
"3. c #4C679E",
"4. c #4A659C",
"5. c #46689E",
"6. c #4F699C",
"7. c #4F689E",
"8. c #4E699E",
"9. c #4C6C9D",
"0. c #4D6D9E",
"q. c #4E6C9E",
"w. c #4C699D",
"e. c #516797",
"r. c #50679D",
"t. c #51669D",
"y. c #546B9D",
"u. c #4566A1",
"i. c #4A67A0",
"p. c #466BA2",
"a. c #4F6DA1",
"s. c #4E6EA1",
"d. c #4F6DA3",
"f. c #4F6EA4",
"g. c #4C6BA2",
"h. c #516AA0",
"j. c #536DA0",
"k. c #506EA0",
"l. c #536EA3",
"z. c #516FA5",
"x. c #566CA5",
"c. c #546FA6",
"v. c #526DA3",
"b. c #506FA8",
"n. c #4E71A9",
"m. c #5470A2",
"M. c #5570A7",
"N. c #5371A5",
"B. c #5871A7",
"V. c #5A74A7",
"C. c #5872A5",
"Z. c #5370A8",
"A. c #5473AA",
"S. c #5673AB",
"D. c #5574AA",
"F. c #5777AA",
"G. c #5473A9",
"H. c #5A73A9",
"J. c #5977AD",
"K. c #5D79AB",
"L. c #5A7BB0",
/* pixels */
"c R / h : o 2 A C H u n n n %.N N + + y s m P m m C N B u $ < z Q e.} r.V.9.X.9.s.l & $ u h M N N c ",
"Q b c * & > n C A d u C n / N N > X 2 d m m m s m Z N p @ 8 o.| *.~ @.j.m.v.9.s.l $ & 9 d N n A N N ",
"c ^ < $ N d r d d r A d C N h > O > d a m m y d M s u X - b >.o.3.,.r.H.9.9.H.z @ & 9 u n A M M x N ",
"W 0 X F F m G a r C h N N h > u 9 $ 9 d k y s m M y X * w.4.X.| h.$.H.v.v.S.x = $ 9 p k N n M n ( / ",
"0 X u V v Z Z m t y M C u > h { l * * t s y k m u & + z N.*.Q r.i.3.x.v.S.F + $ u s d C x d C M c T ",
"+ 0 v B Z B m y d 7 d 5 > 5 [ h c ^ q * 6 j j y $ O h _ 3.,.Q x.$.S.c.S.^ & : 9 u d n m h C C C V c ",
"h [ S F L Z s s M d : + u g g / <.g.5.u # i s & o p _ *.h.Q h.t.i.c.b.S , : t s p k d s M C M A h 4 ",
"i.^ Z L m m m Z d r > N N N ` 3.*._ v.i., & @ @ < 5.T t.Q g h.[ g.b.x : : 9 s y s s y m n n P C & 4 ",
"%.V A k m Z B m 7 1 v V / 1.[ 1.9.x.&.g.p O X & b 1.} ,.1.} } i.L 7 # , t i a s a r s k M C M : p V ",
"F $.S V B B k t ; k K &.1.*.1.i.r.9.N.+.$ O 9 f W #.@.3.h.h.} [ 6 # , 7 t 7 t s r m s m C k : y %.<.",
"{ F V F B B 7 , d V 5...%.1.<.9.*.&.z O O u c R 3.#.1.r.h.h.N 5 ; ; t t 1 t s s a s M M d > 9 &.%.<.",
"{ ^ V V B 9 & d $.5.V i.9._ 4.W &.W - . p V / 1.#.Q @.r.i.V 0 + # ; 7 7 t t t t s C d u : u ..5.&.<.",
"^ ..^ V 9 o d 5.F { i.$.[ 4.X.m.4.* X p ` / i.} c } ,.h.[ 5 + 2 7 ; ; 7 y r a s n s a 1 v K &.K g.+.",
"....S 2 * u i.$.%._ [ [ 1.m.9.z $ . l $.[ T } g Y r.r._ 5 + 1 s k i ; ; r y a s a s & C &.V o.s.| W ",
"F | 9 X p w.^ ^ [ / x.h.+.U 8 . X l { c / [ T T t.t.} 9 @ 6 k s k k t ; 1 t a a y o A u.j | C. .b #.",
"..u $ l &.F F 4.3.*.c z l < @ % & v N ^ [ g Q t.h.} w X 2 B k B m m m r ; : 1 r : C g.V 5.F.X.x  .X.",
"0 $ z 4./ ,.[ R R N 5.| 6 @ 6 , o y 1.N f V 1.3.*.0 O 4 x k M Z s Z m k s 6 & & V w.x >.F.&.b X.| 9.",
"* j ..F [ N ` *.3.%...q @ 6 j v 2 & h h ^ 5.+._ g O > V M x L Z Z Z m m k 6 @ B &.b s.m.^ c +.| X.b ",
"9 | ^ $.[ 3.V N c c 6 . = j v B F > + p L o.K j X < S V N L F Z L m k B 6 # v L | S.s.5.w.5.| i.X.8 ",
"V ^ 4.#._ c z W h.h X * j V v V S M o X 6 K j @ < ..V V L F L I K k L 7 # i K s.S.$.w.<.5.| i.g.- = ",
"+.[ *./ ^ c c &.0 X , c <.v V V c F j = @ 6 @ q K K L L L L 5.L k L i @ < K f.f...i.g.$...5.i.> < l ",
"Q *.} _ b +.F f $ < x g.v V V b K &.5.q @ @ 6 L K L L L L p.L B K j @ 6 5.z.&.b 5.5.&.F $...< 4 b $.",
"} Q ` T +.b p . 8 b g.b ..F | F 5.K j 6 # 6 Z m L L p.L L 5.K K i X q A.f.V V V &.5.5.$.%.2 & N V Q ",
"g T } [ U l $ 9 K &.b V ..../ i.| K q # 6 k K L L L L p.s.5.K 6 X = K &.V K K i.w.| %.F , : 9 S c N ",
"g Q ' ' 5 . 4 } X.l K 5.K o.g.{ 5.v @ @ v L K K L L n.p.s.v q   - l &.V K w.%.i.F { A : o y M c c f ",
"Q Q :.4 % e 4.1.b b 5.b &.9.{ g.K @ 6 j b L L B L L p.n.v = . 6 V &.V K &.F ..x ^ V : + y x M M V f ",
"Q Q e % % 6.>.b K 9.K p.5.&.n.F @ - x K K K v V 0.n.9.w , X 6 | F ^ $.%.| { x &.S : + a h M h C z g ",
"T f O % b 6. .X.9.K n.9.&.z.p X - j w j v K &.5.p.K j 6 * w 5.K C 5...{ 5.v { N 2 X y m h d x C f z ",
"e $ % z m.X.| e.l K 0.9.g.j # & q s v V K | V | W w , @ & F B ..V ( [ V N %.d > o o 2 d M d M h l W ",
"% O b K.e.9.e.v X.m.s.5.w o , j v K B B K K V b w < @ 6 , , F K S N A C %.x 1 > 5 : : y u d h d _ T ",
"% U K.6.m.9.X.9.0.X.K 8 X 6 B v k B K K x x +.x - . x A.j # M B H S M %.I u > s M d u > > d d V c 0 ",
"j.V.e.m.X.5.s.X.b b q & 1 j j j Z v B j v s.b - X x L.p.K s & Z x d F %.y : d M A d H M : > V N 4 O ",
"j.y.y.#.@.>.b K K w $ X % i i p d l h F w.V = . w F.s.X.N.N.x # 9 K u.u : s C N M N S p u = q 6 % Y ",
"U Y Y #.>.X.9.X.q @ % 8 @ & 7 s d x 5.V x * @ w F.m.0.F.g.i.v.N = N u 2 h N C C N S x p B j X X b j.",
"Y @.e.y.1.y.v.V $ 6 8 8 w : : v S S v V 6 X j F.F.s.9.s.v.Z.f.u.p + 9 v C S K u A N x N X.w $ w Y U ",
"y.Y @.+.+.S.V X 6 w 8 w 9 u > , x V V u X l C.s.9.G.z.p.s.%.F K y 9 x S F M k V S l S ..w . 8 | @.e.",
"Y e.1.1.m.l + < g 5 f u f u v 9 = v w X l N.x.9.9.s.&.5.&.u.n.v t M Z Z M k B B v 5.X.p % 9 X.9.y.e.",
"r.#.^ $.p & 5 g u u u f u h N N < * X l J.Z.N.v.9.w.f.Z.Z.5.j , m A M M v S v v K v 0 @ 6 9.m.6.Y Y ",
"Y 6.9.g * 2 N h g h f h h N V 9 = X p S.F.v._ <.g.| i...B 9 , B A C G Z N B v L 5.= $ w v.r.+.4.@.@.",
"4.X.g $ 2 N N d h d h l N v h < @ u N.S.<.$.<.<.R { 5.N , , Z B m G G M Z Z 5.K q . = 9.@.1.g.R U Y ",
"+.8 * < x A n d a N g V h v p * 9 f.F.v.f.i.x.v.b.b.V & 6 Z m m A C C Z K L &.9 X $ z 0.6.U K | #.e.",
"w O , d A d M M C h V h N x : < i.S.<.f.N.i.i.$.%.l o 2 B k Z B C Z I p.L K q X 6 @ % b 5.b | @.#.@.",
"$ 8 l N x M h M ( h N N l * 5 5.g.i.g.h.i.g.g.g.N & : k B m Z m L L L F &.i   0 b w . % b 9.&.b c c ",
"4 l l N M A h M N l h l * u g.f.1.g.b.<.w.B N d 2 X s F k m B I I Z L &.p X 0 <.s.b 6 $ % K x z ..9 ",
"z h x N N x N N N g c O p f.f.%.b.<.g.v p u.L 1 : m Z m m P I L Z L p.j X 4 w.9.+.x V v . & q b 0 X ",
"l T N N n N N c c z + f i.%.%.i.i.g.N V K M 2 1 k M s s Z L I Z L L q @ , +.i.i.W W >.K p @ @ = X 4 ",
"c / g N ( / c c c + 8 *.1.<.i.%.*.$.F | M 9 1 j m s s s C I L B K w   9 V 4.x.[ ^ 4.o.o.p.j % @ 5 d ",
"c c ( N N g } z + 3 #._ _ $.<.$.<.c ^ B 7 o y m s m m Z Z B B 5.j . q K <.i.3.1.g.^ >.s.L i @ 6 l l ",
"N N T C T *.g O * b +.#.b Q Q } _ $.x - @ 6 k k m M B B Z K B q @ 6 X.K >.x.3.3.*.3.h.c 8 X < l x b ",
"T T T / N 5 O O l | W b c U T @.^ ^ 0 X - p M k B B Z Z M Z q @ = z X.X.9.9.h.1.i.g.^ < * , l x c b "
};
