/* XPM */
static char *_eae2a77a67f4ba7b2bc13e7897836cbdfBLhJyj8htcAoWQ[] = {
/* columns rows colors chars-per-pixel */
"50 50 220 2 ",
"   c #1E1E1E",
".  c gray12",
"X  c #252525",
"o  c #272725",
"O  c gray15",
"+  c #282826",
"@  c #292927",
"#  c #2A2A28",
"$  c #2B2B29",
"%  c gray17",
"&  c #2C2C2A",
"*  c #2D2D2B",
"=  c #2C2C2C",
"-  c #2D2D2D",
";  c #2E2E2C",
":  c #2F2F2D",
">  c gray18",
",  c #2F2F2F",
"<  c #30302E",
"1  c #31312F",
"2  c gray19",
"3  c #313131",
"4  c #323230",
"5  c #333331",
"6  c #323232",
"7  c gray20",
"8  c #343432",
"9  c #353533",
"0  c #343434",
"q  c #353535",
"w  c #363634",
"e  c #373735",
"r  c gray21",
"t  c #373737",
"y  c #383836",
"u  c #393937",
"i  c gray22",
"p  c #393939",
"a  c #3A3A38",
"s  c #3B3B39",
"d  c #3A3A3A",
"f  c gray23",
"g  c #3C3C3A",
"h  c #3D3D3B",
"j  c #3C3C3C",
"k  c #3E3E3C",
"l  c #3F3F3D",
"z  c #3E3E3E",
"x  c #3F3F3F",
"c  c #40403E",
"v  c #41413F",
"b  c gray25",
"n  c #424240",
"m  c #434341",
"M  c gray26",
"N  c #434343",
"B  c #444442",
"V  c #454543",
"C  c gray27",
"Z  c #464644",
"A  c #474745",
"S  c #464646",
"D  c gray28",
"F  c #484846",
"G  c #494947",
"H  c #484848",
"J  c #4A4A48",
"K  c #4B4B49",
"L  c gray29",
"P  c #4C4C4A",
"I  c #4D4D4B",
"U  c #4C4C4C",
"Y  c gray30",
"T  c #4E4E4C",
"R  c #4F4F4D",
"E  c #4E4E4E",
"W  c gray31",
"Q  c #50504E",
"!  c #51514F",
"~  c #515151",
"^  c #525250",
"/  c #535351",
"(  c gray32",
")  c #535353",
"_  c #545452",
"`  c #555553",
"'  c gray33",
"]  c #555555",
"[  c #565654",
"{  c #575755",
"}  c #565656",
"|  c gray34",
" . c #585856",
".. c #595957",
"X. c #585858",
"o. c gray35",
"O. c #5A5A58",
"+. c #5B5B59",
"@. c #5A5A5A",
"#. c #5B5B5B",
"$. c #5C5C5A",
"%. c #5D5D5B",
"&. c gray36",
"*. c #5D5D5D",
"=. c #5E5E5C",
"-. c #5F5F5D",
";. c gray37",
":. c #5F5F5F",
">. c #60605E",
",. c #61615F",
"<. c #606060",
"1. c gray38",
"2. c #626260",
"3. c #636361",
"4. c #626262",
"5. c gray39",
"6. c #646462",
"7. c #656563",
"8. c #646464",
"9. c #656565",
"0. c #666664",
"q. c #676765",
"w. c gray40",
"e. c #676767",
"r. c #686866",
"t. c #696967",
"y. c #686868",
"u. c DimGray",
"i. c #6A6A68",
"p. c #6B6B69",
"a. c #6A6A6A",
"s. c gray42",
"d. c #6C6C6A",
"f. c #6D6D6B",
"g. c #6C6C6C",
"h. c #6D6D6D",
"j. c #6E6E6C",
"k. c #6F6F6D",
"l. c gray43",
"z. c #6F6F6F",
"x. c #70706E",
"c. c #71716F",
"v. c gray44",
"b. c #717171",
"n. c #727270",
"m. c #737371",
"M. c #727272",
"N. c gray45",
"B. c #747472",
"V. c #757573",
"C. c #747474",
"Z. c gray46",
"A. c #767674",
"S. c #777775",
"D. c #767676",
"F. c #777777",
"G. c #787876",
"H. c #797977",
"J. c gray47",
"K. c #797979",
"L. c #7A7A78",
"P. c #7B7B79",
"I. c gray48",
"U. c #7B7B7B",
"Y. c #7C7C7A",
"T. c #7D7D7B",
"R. c #7C7C7C",
"E. c gray49",
"W. c #7E7E7C",
"Q. c #7F7F7D",
"!. c #7E7E7E",
"~. c gray50",
"^. c #80807E",
"/. c #81817F",
"(. c #808080",
"). c #818181",
"_. c #828280",
"`. c #838381",
"'. c gray51",
"]. c #838383",
"[. c #848482",
"{. c #858583",
"}. c #848484",
"|. c gray52",
" X c #868684",
".X c #878785",
"XX c #868686",
"oX c gray53",
"OX c #888886",
"+X c #898987",
"@X c #888888",
"#X c #898989",
"$X c #8A8A88",
"%X c #8B8B89",
"&X c gray54",
"*X c #8B8B8B",
"=X c #8C8C8A",
"-X c #8D8D8B",
";X c gray55",
":X c #8D8D8D",
">X c #8E8E8C",
",X c #8F8F8D",
"<X c #8E8E8E",
"1X c gray56",
"2X c #90908E",
"3X c #91918F",
"4X c #909090",
"5X c #929290",
"6X c #939391",
"7X c #929292",
"8X c #939393",
"9X c #949492",
"0X c #959595",
"qX c #969694",
"wX c #979795",
"eX c gray59",
"rX c #989896",
"tX c #999997",
"yX c #9B9B99",
"uX c #9C9C9A",
/* pixels */
"r.j.p.j.f.f.f.S.G.m.S.L.B.G.c.B.B.S.B.S.a.5.(.K.D.Z.Z.Z.Z.Z.D.D.D.D.C.a.z.a.a.z.z.a.b.D.m.C.C.-.m.z.",
"c.f.f.m.S.W.L.m.B.S.B.c.f.S.m.m.c.G.m.j.Z.*.y.h.z.h.h.z.z.z.a.y.a.5.a.h.a.C.z.z.D.(.R.R.D.L.q.j.(.R.",
"p.j.B.c.%.%.6.2.j.q.r.p.2.q.q.>.q.{ 6.>.~ o.'.C.C.Z.D.Z.C.C.D.D.D.D.R.D.C.D.D.C.C.R.D.z.m.c.j.{ 5.<.",
"l s h c e s s 9 c 9 9 e ; e e 4 9 y y l i +.a.a.a.z.C.Z.C.z.z.z.z.b.z.z.z.a.C.C.C.C.C.C.S.m.G.l N N ",
"/.{. X%X X`./.{./.%X/.G.G.W.L.Y.G.B.L.6.q.-.z.z.a.y.5.y.y.a.z.z.a.a.z.z.R.R.W.(.E.R.W.`.W.`.W.c.L.L.",
"Z J F I ^ ! ! +.{ m.Y.{. XW.S.B.B.Y./.Y.z.C.D.R.E.R.(.'.'.XXXXXX*X*XD.  2 % 2 2 % % # # ; # 4 m Z Z ",
"m.G.B.S.S.S.S.`.m.Y.`.+X/.W.`.`. XW.L.B.C.(.'.(.'.|.'.'.(.(.).'.R.*X(.~ 5.5.a.y.a.m.j.j.m.p.C.m.S.S.",
"* < ; < ; * + + o y s l l m l e y e s y s i j b b b j b b j j i i 0 % ).K.K.D.D.S.S.S.C.m.L.m.Y.W.W.",
"..%.{ 6.6.2.6.r.%.L./.%X+X+X X+X1X X1X%X#X'.'.XX<X*XXXXX*X*X<X*X*X(.C.z.a.y.z.z.f.f.f.r.B.G.c.G.S.S.",
">.2.2.r.r.r.f.f.m.J ` ..{ ..{ ..^ +.^ ^ X.X.( ~ X.X.o.X.X.( ( ( U X.N 2 i % 2 ; < * * < < < < * ; ; ",
"Y.W.{.W.`.{.+X XL.B.B.r.m.B.c.S.G./.L.L.R.D.'.(.(.(.R.(.(.).'.'.%X*XD.R.R.(.(.`./.B.f.B.B.c.c.G.m.m.",
"{ ` +.^ ^ ` ` ` ` ; * 9 < ; * o ; ; 0 i b i 2 i i i i p i i i i i 0 N z.D.(.L.D.B.Y.Y.B.c.G.Y.6.<.2.",
"W.Y./.L.W.W.Y././.{.p.L.W.W.+X+X+X+X%X=X*Xz.] ( ( X.@.@.X.( X.@.<.X.( ~ ! ! ..` ..! I ` %.......-.<.",
"+.......+.+.+.%.+.%.%.%.>.-...-.%.%.-.6.<.@.R.(.'.(.E.D.C.C.C.D.S.R.D.y.c.B.G.c.c.f.6.%.f.G.B.%.a.y.",
"`./.W./.Y.L.Y.G.m.S.Y.L.G.S.`.Y./.`. X=XR.D.7X0X<X*X*X*X<X*X*XXX`.`.Y.G.S.+X=X{./.G.+X{.Y.=X.X{ <.@.",
"p.c.j.m.c.m.B.m.m.m.m.c.j.c.S.m.c.m.f.r.b.( j j b j i j j 0 i i y 9 y < * < y 9 y 9 < 9 y y 9 I <.<.",
"G.m.S.G.B.S.S.m.m.m.j.f.S.S.m.S.S.z.z.S.D.<.z.a.C.m.z.z.z.z.a.z.f.f.f.c.c.c.f.j.S.S.G.B.c.B.c.6.q.5.",
"2.-.-.2.-.-.-.%.+.2.p.j.p.p.p.m.z.C.D.C.m.q.D.(.R.R.(.'.'.XXXXXX+X=X/.6.B.c.S.Y.G.B.G.B.B.c.f.%.r.y.",
"B.f.q.p.S.`. X`.G.%X%X%X X+X X X%X%X%XXX%X=X7X1XXX'.|.XXXX'.'.'.W.{./.G.{./.G.Y.Y.L.Y.Y.G.G.G.c.p.j.",
"! ^ { +.-.2.q.2...q.q.+.%.+.+.^ ^ ^ { ^ Y ^ ^ U Y U U ~ ~ Y ~ ~ ! F c F I Z V V Z V V V c c h h l l ",
"{ { +.{ { -.2.6.q.y ; 4 s 4 l y s y l s e l m m m m N Z N S S S Z F F I ..` ! ! ` ^ ` ` ` ....` ! ^ ",
"p.p.p.j.S.L.S.m.m.S.m.j.m.m.p.j.j.p.p.p.j.j.j.p.j.j.z.j.z.a.a.z.r.p.r.G.B.c.B.B.B.B.c.f.c.c.f.f.j.j.",
"r.f.p.p.q.q.q.j.p.+.L.+XL.S.L.S.S.B.L.W.`./.`.`.`. X`.`.XX X'.%X=X+X{.uX2X2X2X=X%X=X+X X%X2X7X2X1X1X",
"-.2.q.q.p.q.p.m.-.2.`.L.W.G.S.m.c.c.m.m.c.f.j.f.j.m.p.p.z.p.2.q.f.f.-.+.f.r.6.%.` %.>.>.>.q.r.f.L.L.",
"S.S.j.m.S.j.B.p.j.j.c.p.p.p.6.p.f.j.2.j.m.m.X.y.q.a.p.2.-.<.2.-.%.%.%.` F I ! I ` ! ^ ! ` ^ ..f.+X+X",
"p.p.-.2.2.+.-.-.+.-.q.q.2.-.+.-.+.+.+.q.2.2.2.q.q.j.m.p.y.p.j.m.W.f.f.c.G.m.c.m.B.Y.Y.+X+XG.G.%.` ` ",
"+ # # ; ; * ; ; ; # # # # ; # # 4 ; 4 s e e +.q.-.2.2.5.5.<.-.-.....%.%.%.6.>.%.%.%.` %.>...6.I F Z ",
"2.p.j.p.p.p.p.p.q.q.p.p.q.q.p.q.q.p.m.m.m.2.2.2.q.p.y.5.y.5.y.C.B.r.f.f.r.6.f.p.f.6.p.f.q.j.B.%.c.f.",
"m.S.Y.S.G.W./.W.W.W.W.`.W.L.L.W.W.W.`.Y.W.j.<.5.@.<.1.y.y.5.q.a.m.Y.Y.G.f.c.r.p.f.c.S.f.c.c.r.f.9X2X",
"`.`.`.`.W.W.L.L.Y.W.G.B.L.L.L.W.L.L.W.L.z.p.5.z.D.C.a.a.y.y.y.a.j.f.c.p.%.>.q.6.6.r.r...>.f.r.! /.Y.",
"q.q.p.j.j.p.r.q.2.Y.Y.S.m.S.D.L.(.(.`.`.'.(.R.(.'.XX<X7X*X:X0XeX9XrXG.4 ! h h h s s y h m 9 h ! ` ` ",
"2.q.q.6.q.2.q.2.{ L.L.m.S.R.W.D.C.R.D.L.).K.'.*X#XXX*X'.K.R.(.D.c.f.f.>.>.6.6.6.r.r.r.>.6.6.r.6.>.>.",
"S.S.G.L.L.S.S.L.r.y e ; 9 e s m b b b N b b S H U U U ~ ( @.@.X.+.+.Z # 4 e e 4 4 ; 4 < ; ; ; # 2 4 ",
"q.q.q.q.q.2.2.6.q.2.%X`.Y.`.`.W.XX'.*X*X'.#XXXXXXXXX'.(.R.E.(.(.R.R.a.-.2.q.-.6.2.2.2.2.2.-.-.-.-.2.",
"-.2.q.q.2.%.-.2.>.e ^ +.+.{ Y { ( ] ( ( Y ~ ~ ( ~ ( ] X.( ( ( ~ I { %.S.S.S.G.m.m.m.j.m.j.p.p.r.6.6.",
"m.j.j.j.B.L.W.W.S.{ p.m.G.S.S.Y.).XXXX'.<X*XD.D.R.Z.b.C.C.C.z.C.L.G.W.p.m.m.m.B.c.j.c.j.p.f.j.2.f.c.",
"h l m l s y e e 4 4 e * ; < 9 < - O X O   % D.D.C.a.a.z.C.Z.D.D.p.q.2.%XS.S.S./.`.L.W.`.L.W.{.p.F Y ",
"`.G.j.f.j.S.m.m.p.q.2.r.G.B.m.c.b.z.D.z.a.<.*X`.D.D.D.D.C.C.z.z.S.c.S.m.G.L.S.`.S.m.S.S.c.G.W.-.a.j.",
"j.j.p.2.2.2.q.p.c.m.c.j.m.j.B.B.z.C.C.C.z.@.%XR.R.D.K.D.C.C.b.C.j.j.B.S.S.j.S.j.m.m.j.S.m.m.S.+.^ { ",
"S.S.S.m.m.m.B.S.B.B.L.G.G.Y.Y.m.D.z.m.C.C.a.*XW.E.(.'.XXXX|.(.E.L.W.W.W.`.W.L.L.S.S.c.S.L.S.j.-.X.2.",
"` ! ! I I F I ! Y F ! ! ` ` ^ ` ` ^ ` ` ! V y 4 4 4 4 * o o o # # # ; ; e 4 2 4 4 4 ; ; ; 4 e 4 j.p.",
"q.6.6.6.6.r.f.f.6.p.6.6.6.6.6.>.r.r.q.6.6.6.f.B.c.j.f.p.q.2.-.>.q.2.2.q.m.m.j.m.S.c.S.S.m.m.p.` j.a.",
"f.r.6.6.,.>.>.%...Y.G.G.Y.B.S.{././.W.L.B.j.j.c.S.S.S.W.L.L.S.L.G.W.+.2.2.j.p.p.p.q.p.p.q.q.-.m - 2 ",
"{.{.{.{.{.+X=X=X+X/./.{.{.{.Y.B.L.G.L.Y.`.`.`.W./.`.`.`.`.L.G.L.L.L.^ p.2.p.z.5.6.q.2.+.-.-.-.{ ( X.",
"..%.%.%.%.%.%.%.F < < < 9 9 < y 4 4 < ; < ; < < * ; ; ; * # # o o   <.R.C.z.a.z.z.C.b.z.m.z.m.C.z.z.",
"/..X=X=X2X=X+X=XY.` 6.r.2.r.f.r.q.6.p.p.p.r.r.r.q.p.p.q.2.2.2.-.<.X.5.a.z.a.9.5.<.@.<.5.<.-.<.@.@.<.",
">.>.%.>.,.r.f.j.>.6.B.c.c.B.m.B.S.m.m.m.B.B.B.B.c.B.S.S.S.L.W.W.R.D.j 2 2 0 2 0 0 % 3 0 2 3 0 % 2 2 ",
"I F F K I Y I F c f./.Y.G./.`.=X X{.`. X+X=X2X9X2X7XwXwXyXwXrXyXeX7Xy.L.D.D.D.z.z.C.a.y.a.a.a.a.a.a.",
"{ { ( <.+.@.@.@.*.<.y.a.z.a.C.C.R.(.W.W.W.j.2.p.2.>.{ { { ` { ^ ( ( @.5.5.<.<.@.<.@.<.<.<.@.q.( 5.5.",
"m.m.z.S.Z.D.D.C.y.<.<.y.z.C.D.R.W.`. X`.`.j.2.q.6.y.q.p.p.r.q.>.y.5.y.y.5.5.y.y.y.y.y.y.y.y.z.<.y.5."
};
