/* XPM */
static char *c174b1b305374676e8ca77449418c6b6tNwX4a6FCw18YEyd[] = {
/* columns rows colors chars-per-pixel */
"50 50 199 2 ",
"   c #0E4700",
".  c #0D4C00",
"X  c #154600",
"o  c #134D00",
"O  c #1A4D01",
"+  c #0E5000",
"@  c #145300",
"#  c #1B5401",
"$  c #155A00",
"%  c #1B5B01",
"&  c #1E5609",
"*  c #1E5E08",
"=  c #234E00",
"-  c #225602",
";  c #225D03",
":  c #285A05",
">  c #205209",
",  c #295508",
"<  c #245D0A",
"1  c #285E0A",
"2  c #2E5E13",
"3  c #166001",
"4  c #1C6303",
"5  c #1A6A06",
"6  c #1C6509",
"7  c #1E6B0B",
"8  c #1E7109",
"9  c #1F6711",
"0  c #236305",
"q  c #296506",
"w  c #246905",
"e  c #296B06",
"r  c #24640B",
"t  c #2A650C",
"y  c #256B0C",
"u  c #2B6C0C",
"i  c #326B0E",
"p  c #386E0E",
"a  c #227406",
"s  c #247B05",
"d  c #2D7C07",
"f  c #25730B",
"g  c #2C720D",
"h  c #257A0C",
"j  c #2C7A0D",
"k  c #387905",
"l  c #32740D",
"z  c #347C0C",
"x  c #3B7E0D",
"c  c #256511",
"v  c #2B6514",
"b  c #256D12",
"n  c #2C6C13",
"m  c #2F6118",
"M  c #2D6C19",
"N  c #326D14",
"B  c #3A6C17",
"V  c #35671A",
"C  c #346C1A",
"Z  c #386E1C",
"A  c #277016",
"S  c #2C7413",
"D  c #277811",
"F  c #2D7B12",
"G  c #2E731A",
"H  c #337414",
"J  c #3A7515",
"K  c #337B14",
"L  c #3B7D15",
"P  c #34741B",
"I  c #3A751C",
"U  c #357A1A",
"Y  c #3B7C1C",
"T  c #3A6E22",
"R  c #367522",
"E  c #3B7423",
"W  c #377921",
"Q  c #3C7B23",
"!  c #3F7B29",
"~  c #437D15",
"^  c #42751E",
"/  c #427C1D",
"(  c #417724",
")  c #437C24",
"_  c #4A7E24",
"`  c #40762A",
"'  c #447D2A",
"]  c #4B7F2B",
"[  c #2E830E",
"{  c #33840E",
"}  c #3E820F",
"|  c #31890F",
" . c #2D8214",
".. c #348313",
"X. c #3B8414",
"o. c #358A13",
"O. c #3B8B15",
"+. c #35831A",
"@. c #3C831B",
"#. c #378C19",
"$. c #3C8B1A",
"%. c #3B9016",
"&. c #3E9119",
"*. c #378520",
"=. c #3E8322",
"-. c #408207",
";. c #41840E",
":. c #44890D",
">. c #488A0F",
",. c #428514",
"<. c #498217",
"1. c #448B15",
"2. c #4A8B14",
"3. c #43841C",
"4. c #4A861C",
"5. c #448B1C",
"6. c #4A8C1C",
"7. c #508B1B",
"8. c #4D9115",
"9. c #43921B",
"0. c #4C921D",
"q. c #4D991F",
"w. c #51931A",
"e. c #438423",
"r. c #488120",
"t. c #4A8322",
"y. c #4A8221",
"u. c #4A8420",
"i. c #4A8624",
"p. c #4F8527",
"a. c #4D8427",
"s. c #4A8525",
"d. c #408920",
"f. c #458A22",
"g. c #498820",
"h. c #4B8C24",
"j. c #478729",
"k. c #458429",
"l. c #48842A",
"z. c #4B852A",
"x. c #458B28",
"c. c #4D8929",
"v. c #4F882A",
"b. c #4F8A29",
"n. c #4F8A2E",
"m. c #4C8B2A",
"M. c #508326",
"N. c #508A26",
"B. c #508D26",
"V. c #518B24",
"C. c #50802A",
"Z. c #54852A",
"A. c #57852D",
"S. c #518D2B",
"D. c #53882C",
"F. c #528E2C",
"G. c #528E2E",
"H. c #518C2B",
"J. c #598C2D",
"K. c #449023",
"L. c #459122",
"P. c #4C9324",
"I. c #4C9923",
"U. c #4D932A",
"Y. c #4F9928",
"T. c #519525",
"R. c #539A26",
"E. c #52902D",
"W. c #51922E",
"Q. c #52902F",
"!. c #54902C",
"~. c #55912F",
"^. c #52942B",
"/. c #5A952B",
"(. c #559A2A",
"). c #589C2E",
"_. c #4A8332",
"`. c #4F8A30",
"'. c #518533",
"]. c #538D32",
"[. c #5A8B32",
"{. c #549030",
"}. c #579530",
"|. c #549432",
" X c #5A9634",
".X c #599537",
"XX c #579832",
"oX c #579B30",
"OX c #5C9836",
"+X c #5C9A37",
"@X c #5B9D33",
"#X c #599138",
"$X c #5C973B",
"%X c #5A9539",
"&X c #5D983A",
"*X c #5C9C3B",
"=X c #62A136",
"-X c #61A43A",
";X c #65AA3F",
/* pixels */
") P ' C o o & R R ! n H R R ' R ` > o t H H X.F  . .+.*.U % # J / Z.y.m./.W.G.n.#XV @ # t U U K I I ",
"' Q R % # o M R Q c r R N Q ( R & o < H u @.j F  .+.+.F + * C./ a.e.s.~..XG.c.%XN # % u H I U Y I ' ",
"I Q * @ H S c R A 6 ! c R R C #   2 n b +.D a D F @.n # # ^ M.u.B.4.m.+Xm.G..XJ + % r u U U L I Y ) ",
"Q t @ Y =.+.K 7 6 W 9 G Q M % r * @ S A D f f F U n o - l.J./ u.B.3.+X[.Z.OXY @ % w g H U U H Q ) I ",
"n @ g K...[ #.h 6 6 G R c @ n z.n o % D 5 8 F F S o - ^ J.M./ V.h.h.G.W.$X) @ $ w y F U U U U R C Q ",
"@ y z { O.[ [ h 8 9 A c @ < h.H C Q % $ y D S n @ X B C.Z._ 4.!.3.XXW..Xk.@ # w y j F S S U Q R ) I ",
"S @.O.O.o.o.s a +.A $ + u =.J H l.z.) % * H c % X Z ^ z.Z./ D.D.h.{.XXY @ $ y y D D y S H H W Q C % ",
"P.L.o.%.| s [ #.F 7 # I Y H @.m.s.s.].( o # # X < ) ) s.Y Y G.3.|.|.U @ $ y 8 A S y y F G H Q G @ t ",
"5.O.#.[ { ......w % H ) Y f.f.f.h.Z._ '.2 X O O ( j.z.e.@.e.e.m.e.t @ @ 7 f A 8 y 7 A G U U H % U 3.",
"O.9.X.#...+.+.y % H 3.3.h.m.6.5.u.a.'.] = O 2 V ' s./ h.c.e.e.Q < # @ b y 5 8 7 6 n G P U S $ S 5.7.",
"9.| $.X.X.U n $ u / S.3.3.h.5.h.p.s.N O O 2 V ` v.e.3.h.m.f.) 0 @ % 6 5 5 7 7 7 A r W Q r $ f L.P.h.",
"O.5.#.@.@.g @ N s.h.3.h.h.3.4.L / I & o m E ` '.] ^ Z.D.s.U 0 @ o ; c 4 4 8 5 9 b W H r % S d.P.6.4.",
"$.5.d.X.u @ u h.s.x.x.3.3.h._ [.v.# X M E ' _.) J ) D.p.^ 0 @ 4 % @ % 6 6 6 7 b G b w $ Y f.L.L.h.6.",
"f.$.X.e @ H c.h.3.x.=.@.h.D.D.^ O O v ' ' _ E I ) z.D.Y 0 @ 0 g H 6 + $ 7 6 A A c r $ e.f.5.P.P.u.6.",
"f.=.g @ i m.u.3.3.@.U.U.e.) 2 O X ` ' ( ' Y N I v.v.( r @ 0 K F U U 3 $ 6 9 9 c 4 $ f.f.z L.I.,.5.g.",
"=.D $ u h.4.3.h.P.f.@.H N r X # > T T ( ( N / l.`.' r + w +.F +.+.F G $ + $ * r % 3.^.X.0.R.O.X.6.g.",
"M @ S f.3.5.h./ L J ^ J ; @ * # O v ! E V ( h.z.) r . y +... ...F ..F S 0 @ o # f.L.x 6.R.X.} 5.g.6.",
"% S c.f.5.L X.,.h.p.z.i . % H S o < M V ( ) _ ) t @ n +...#.o.o.#...D S P ; @ s.u.x 0.q.,.{ &.f.g.p ",
"w e.@.e.=.h.L 3.I J t O # H @.H U # # C ) ] ( N @ g X.X.+.$.#.O.o.j U Y % @ e.3.3.R.0.9.O.L.d.h._ : ",
"L f.x.x.k.H K Y ].C X # H 3.X.K 3.u . . I E 1 o y K.O.O.K.O.9.O...K =.* @ U f.P.R.6.0.6.5.5.f.c.- - ",
"5.6.f.Q =.K L k.v X % Y 5.L X.X.K 3.0 # X ; % w 9.%.%.%.O.9.0.X.Y 3.r $ w f.U.Y.5.5.P.I.@.d.f.# < I ",
"3.h.f.@.U Y U C @ ; L 3.3.} X.,.,.f.h.0 @   n x.1.1.9.%.O.1.5.3.e.u o e h.Y.K.X.P.L.5.$.5.f.% t e.l.",
"s./ Y L f.Y y X q 3.6.~ } O.} } 6.5.L 0 @ n f.#.&.I.9.9.R.1./ e.t # l W.^.X.X.5.K.K.d.f.e.% % ) / / ",
"J e.Y 3.Q y @ u / ,.} ,.X.X.O.R.3.,.0 @ 0 @.5.5.9.%.9.9.1.P.e.; @ % h.f.,.5.3.P.d.d.d.@.% @ g e./ 3.",
"H 3.Y / r @ w e.5.k ,.,.X.2.9.1.,.L + $ #.L.5.O.9.1.R.0.P.Y r @ % Y e.X.f.h.f.f.@.f.U $ @ t Y U Y J ",
"e.Y s.N # 0 h.f.} ;.5.,.2.6.1.1.,.+ % ..9.9.O.{ 9.9.P.P.H @ @ 4 =.3.f.3.f.f.Y L x.U @ # n U U K L i ",
"I e.V @ % f.6.x ,.0.,.2.L.3.6.L @ 4 L 5.O.{ | O.I.P.3.H ; . n k.@.5.e.@.3.@.U c.I # @ n S U f =.N i ",
"' J @ # ,.6.;.1.6.1.0.0.6.P.X.@ ; g d d { O.9.L.5.3.l ; o P =.k.=.f.3.f.Y Y x.H # @ M P H f W U N / ",
"Z O # L 6.:.2.2.k 6.0.P.P.j o % S j X.O.$.K.$.@.X.l %   ; =.j.=.=.@.x.Y @.x.y @ o O r H S K U c I ' ",
"X # L T.2.w.>.-.,.0.0.L.g . ; U U @.X.X.$.X.@.L e $ o t $ u =.Y L f.H Y x.D $ 4 6 @ # u b P 9 R ] Z ",
"% ~ /.7.w.2.:.2.R.6.3.0 @ 0 L Y j ....@.K K e.H # @ e.|.0 @ @.@.f.H U x.U 6 r S S u t % * < Q R V , ",
",.!.7.7.w.8.0.8.;.L u # r I H g ..K +.F L m.H # o e.*XP.3.w % 3.H S =.=.6 $ A U @.S Y n @ c ! P = = ",
"T.7.2.6.>.8.:.:.5.g o O & G y D j j F e.e.J ; o Y =XT.,.).U.e $ N k.=.7 3 D U +.S =.U u 0 # M # - A.",
"~ 2.2.2.w.2.1.1.e # # & o # r n f F =.Y I % o J @X).R.).Y.U.U.y 0 k.r 4 F F +.K @.Y g H f.t o # M.A.",
",.2.7.6.1.1.P.l o ; r # r @ $ U @.U U I % @ / =XR.T.R.T.P.|.W.x.y @ y U K +.#.j #.j l / ' i @ H ~ ^ ",
"w.1.:.;.,.^.L @ ; n c n c r @ * U U Q y o U -X0.R.R.R.W.P.e.3.e.r w L $.#.F f h K d s.s.; o i e.M.V.",
"-.2.1.0.!.L o < C r b y n c M & r Q ; . @.=X(.(.R.w.T.h.6.^.W.H w +.X.X.K j X.o.X.L.s.q O i B.V.V.4.",
"7.6.1.3.l @ < R c M w y y P T E # # @ 3.;X).L.I.0.6.R.^.^.f.e 4 @.X.#.j ....K O.5.z 4 @ i S.!.4.4.4.",
";.2.^.g @ % Q M M M n A n P R < o o Y oXP.0.X.,.f.P.h.V.,.4 0 @.X.....X.$.X.X.f.@.% @ I B.7.~ 7.<.7.",
"6.h.l % 4 W U G G n n n Q P V o O Y }.P.5.5.0.P.5.3.T.l @ e $.....O.o.#.X.O.5.m.0 O 0 c.4.6.<.~ ~ ~ ",
"f.e # 0 H W S G y C I E C C c $ H B.@XU.P.T.R.(.^.W.Y $ 0 #...[ O.o.[ O.9.h.s.1 X > I h.6.x x <.4.7.",
"t @ % P Q S S S S P ( V V C % n m.).P.@XT.T.P.3.h.e @ w @.....o.| o.%.9.5.5.; X < O t p.3.x 3.<.<.V.",
"o 0 R U H S j U U H C T T # c x.^.T.(.h.U.U.^.^.H @ % K @... .o.%.%.&.L.h.0 O C ) - O ; z.u.,.L <.p ",
"< P P U H U u U I V E V # P x.U.P.R.P.h.5.@.L g % % S @... .| %.%.o.5.m.q # H `.].N # o t 3.l L ^ ; ",
"U n P U Q H U H P I Z O V |.n.f.^.P.U.j l 5.@.$ 4 U +. .X.o.&.O.O.I.U.w . v G.n./ J z.t o - H 3.# # ",
"G U U U H H J P Z Z o P G.m.f.m.x.h.K 3.Y U 4 3 F +.h s O.O.o.9.L.h.t . V k.G.h.L 5.S.e.; # O # # 1 ",
"U U H Y L I Z E V # v D.h./ h.y.f.3.e.Y U w 3 K h h h s { %.O.5.3.0 @ N k.n.c.f.5.f.5.3.W.i O O N H ",
"W U U Y I E ( V O < l.e.3.h.u.p.S.U k.W 4 @ f F D F [ #.o.{ 9.5.u X H e.h.`.h.h.h.3.5.h.e.t X m C Y ",
"Q I =.W ! ! V o > ' ' k.J / / u.e.z.C # @ y S F K +...X.#.f.3.w o N z.) W.S.h.m.h.f.P.S - # < E I Y ",
"I P Q Q R 2 = O ! k.Q I E U ^ l.) Q t @ * G +.K ..+.+.#.o.X.y . < ' m.x.{.m.S.S.B.P.U 4 # 1 P I I ^ "
};
