/* XPM */
static char *_f262274d3084771c0db3e889f7ab24ac5c6hHcH4R7IFfqO[] = {
/* columns rows colors chars-per-pixel */
"50 50 225 2 ",
"   c #221E1F",
".  c #363538",
"X  c #242A31",
"o  c #453D3D",
"O  c #4C453B",
"+  c #3A3D45",
"@  c #413C40",
"#  c #3C434C",
"$  c #3F484D",
"%  c #43454B",
"&  c #49484A",
"*  c #564C46",
"=  c #454B53",
"-  c #4D4D53",
";  c #444852",
":  c #4C5156",
">  c #4D535B",
",  c #525356",
"<  c #53545B",
"1  c #54595E",
"2  c #5B5A5B",
"3  c #5B5656",
"4  c #555053",
"5  c #615D5D",
"6  c #675E57",
"7  c #62584E",
"8  c #66615D",
"9  c #6B625E",
"0  c #726458",
"q  c #555B62",
"w  c #5B5C63",
"e  c #5C5F6B",
"r  c #545E68",
"t  c #4A5760",
"y  c #635D64",
"u  c #5C6165",
"i  c #5D636B",
"p  c #5B656A",
"a  c #5E6771",
"s  c #646265",
"d  c #6B6465",
"f  c #64646B",
"g  c #6A666B",
"h  c #64696D",
"j  c #6C6A6C",
"k  c #736E6B",
"l  c #756A67",
"z  c #7C746C",
"x  c #78736D",
"c  c #646671",
"v  c #646B73",
"b  c #6C6D73",
"n  c #696C78",
"m  c #746E73",
"M  c #6E7275",
"N  c #6C737A",
"B  c #6A767C",
"V  c #747374",
"C  c #7A7474",
"Z  c #73757B",
"A  c #7B757A",
"S  c #73797E",
"D  c #7C7B7D",
"F  c #7D7875",
"G  c #82603B",
"H  c #84592F",
"J  c #917153",
"K  c #A27B58",
"L  c #857769",
"P  c #987D65",
"I  c #847973",
"U  c #837D7C",
"Y  c #897C75",
"T  c #826E63",
"R  c #B68A5D",
"E  c #9A816A",
"W  c #8A827D",
"Q  c #87837C",
"!  c #948579",
"~  c #A58669",
"^  c #B6926A",
"/  c #A58D76",
"(  c #A7947E",
")  c #B59879",
"_  c #B08E69",
"`  c #C39B74",
"'  c #6C7580",
"]  c #6F7881",
"[  c #737582",
"{  c #747B84",
"}  c #7B7D83",
"|  c #7A7E8A",
" . c #817E83",
".. c #8E7F82",
"X. c #7D8185",
"o. c #7C838C",
"O. c #758087",
"+. c #7C8991",
"@. c #848284",
"#. c #8B8484",
"$. c #84848A",
"%. c #8C868A",
"&. c #858A8D",
"*. c #8C8B8C",
"=. c #898985",
"-. c #928C8B",
";. c #968B86",
":. c #8E928A",
">. c #94928D",
",. c #9C948E",
"<. c #9F988E",
"1. c #858B94",
"2. c #8B8D93",
"3. c #858E99",
"4. c #8D8E9A",
"5. c #868691",
"6. c #948E93",
"7. c #8C9195",
"8. c #8C949B",
"9. c #89939A",
"0. c #939294",
"q. c #9B9595",
"w. c #9B9994",
"e. c #93959B",
"r. c #99969C",
"t. c #949A9D",
"y. c #9B9A9C",
"u. c #969896",
"i. c #A5948C",
"p. c #A89687",
"a. c #A39A94",
"s. c #A49D9C",
"d. c #AA9B96",
"f. c #B59E93",
"g. c #BB9D85",
"h. c #9DA095",
"j. c #BBA28B",
"k. c #A4A19C",
"l. c #ABA29D",
"z. c #ABA69C",
"x. c #B2A49C",
"c. c #B9A89A",
"v. c #8E96A1",
"b. c #8F98A3",
"n. c #949CA3",
"m. c #9B9DA3",
"M. c #979DA8",
"N. c #A19FA2",
"B. c #9CA2A5",
"V. c #97A0A9",
"C. c #9CA3AB",
"Z. c #99A5A8",
"A. c #9EA7B2",
"S. c #A4A3A4",
"D. c #ACA5A4",
"F. c #ACAAA5",
"G. c #A3A5AB",
"H. c #AAA5AB",
"J. c #A4AAAD",
"K. c #ACABAC",
"L. c #A5A8A3",
"P. c #B1A7A1",
"I. c #B3ABA5",
"U. c #B4ADAB",
"Y. c #B9ACA8",
"T. c #B9B1A6",
"R. c #B5B2AD",
"E. c #BCB3AC",
"W. c #B9B6AB",
"Q. c #A3A6B1",
"!. c #A4ACB2",
"~. c #ABADB3",
"^. c #A5AEB9",
"/. c #ACACB8",
"(. c #B2AEB2",
"). c #ABB1B6",
"_. c #ACB3BC",
"`. c #AAB5BB",
"'. c #B4B2B4",
"]. c #BBB5B3",
"[. c #BCB9B5",
"{. c #B3B4BA",
"}. c #BAB6BA",
"|. c #B5B8BD",
" X c #BCBBBC",
".X c #AEB3AD",
"XX c #C09F80",
"oX c #C6A68C",
"OX c #C7AD9A",
"+X c #C3AFA5",
"@X c #C3B3AB",
"#X c #C6B9AC",
"$X c #C2B5B2",
"%X c #C3BAB4",
"&X c #C2BDBB",
"*X c #C8BCB9",
"=X c #BFC0BA",
"-X c #C4C1BD",
";X c #CBC2BC",
":X c #D5C3B8",
">X c #E2C5B0",
",X c #AEB6C2",
"<X c #B3BAC3",
"1X c #BCBDC2",
"2X c #B7BECA",
"3X c #C5BFC2",
"4X c #BEC3CB",
"5X c #BAC1C6",
"6X c #BEC8D2",
"7X c #C4C2C3",
"8X c #CAC5C3",
"9X c #CCC9C6",
"0X c #C5C6CA",
"qX c #CDCBCB",
"wX c #C7C6CA",
"eX c #D2CCCB",
"rX c #D1C9C4",
"tX c #D5D2CF",
"yX c #C7CBD3",
"uX c #D1CFD2",
"iX c #CCD3D5",
"pX c #D3D2D4",
"aX c #D8D4D8",
"sX c #C8D1CE",
"dX c #D9E1EC",
/* pixels */
"M.M.v.- G.{.(.A - q e r.0.w q } f y $.b.2.u G.M [ } b , D G.G.4Xr.y U Y d.l } e { e D.@Xd.i.d.@Xd 6 ",
"4.2.o.f 4.6.j  .G.7.Z - & r.uX3X X} $ 5.1.n.G.!.# < ~.m.g b n f Z w o o 9 I + 4.^.|.3 ,.$XE.a.I i.;.",
", < + w ; : m.m.n.Q.~.2 E.x.;.P.D.7XZ ).Q.G.G.m.> Q.1.7.e.& # v.,X<Xy.y.y., D m.e.m.H.@ q.K.j I $XY.",
"'.1X[ {.Z e.G.Q.C.8.0.g I.c.@Xd.I.S.< G.m.&.m.v M.b.1.| 2.2.e |.n.J.t.t.b X.J.y.Q.N.(.(.d 2 C D.d.f.",
"(.&.G.O.| e.1.n o.= > . s.W I z 6 x . !.r.!.h o.{ o.1.&.} 2.v C.Q.y.=.>.h v 2.v.e.G.m.r.-.d H.a.P.f.",
" Xf { # Z Z > . ] v ] -   o . k $X&X0.7._.2.r n.+.+.1.8.t.2.1.Z 0.#.q.k , u e n & . + @ d R.Y.f.i.d.",
"< n.C.{ w h :.{.<Xv <XV s.wX7Xf ].[.'.7.{ v &.C.3.+.B t.2.B.!.b q.s.C @.V.> 2.6.S.N.~.M l $X,.@Xc.Y.",
"e.).n.q }  XS.S.y.Z G.*.7XU.eXC 3X[.|.N u = = ' 3.# n . - < 2 2.0.V s G.!.{ e m.6.G.N.Q.y m a.y l L ",
"J.!.1.2.{.s.D.>.y.D 0.I.$X@X*XE.r.7X8.C.`.O.C.^.,X,X: 5X7X XB.7.O.p p !.Z.A.a [ &.y.6.A y < + i @ ; ",
"V.C.S {.K.F.D.I.F.8 9 ;X@X:X#X;Xk m.O.V.!.A.> B.Z.V.X.7.y.L.G.~.b.# # O.).!.C.] Z b @.3  .A.,Xb.3.' ",
"!.9.1.5X).U.l.P.k.5 I.l.P.$X-.I g > `.b.Z.<Xv B a $ b K.%.=.0.t.$ ^.5XB > +.4XM m.k.k.L.a ,Xn.B.M.e ",
"9.a o.J.S.I.W.x.U.9 U.].;.4 C N.B.w M.,XA.B v { A.3.O.y.y.0.e.u `.^.Z.`.|.O.q M :.h.#.D.n Q.C.8.6.q ",
"> O.X V.J.k.I.I.F.-.V , V $.= v.m.2.N { q 8.).|.^.B.X.S.k.e.| B.~.u.A.Z.7._.7.2 x ;.! Q y.@.t.8.3.V ",
"V.^.n X &.k.U 8 2 & & }.&X1X5.M 2.m.e o.<X!.S.m.G.J.M S.&.S.M e.t.J.J.Z.1.5.} 6 O I ! h.u.g G.u.&.b ",
"Z.Z.`.q M u #.&.y.b r.'.s.I.*Xg  .N.v M.B.m.y.0.7.7.w B.S.N o.,XC.u.M.A.n.{ * #X( L Q :.*.v 8.7.&.q ",
"!.Z.C.n.c _.S.y.2.u {.S.D.s.N.*Xs [ [ a t.B.y.S u u ; p w > # p n.m.3.a v 3 ( E ~ j.! F 0.1 . Q @.& ",
"> 1.Q.[ e M.4.H.: J.0.y.K.k.-.& : m.6.X - b w } v.<X9.# A.^.B.S h o.Z G.m U J K K P p.T w y.T.z.,.,.",
"> X.Z f > e m , s d x Q W 6 9 9 & {.1X7Xm.m.% /.,X^.6Xv O.^.Z.B.n.V ).].(.L K H J K p.l %.R.p.( i.W ",
"2. X8X9XaX1X- . ;.z.i.p.( E ` OXI I.F.(.'.N.} J.C.Z.Z.n.S _.B.K.~.{ m.H.}.d.J K K ~ T 7 $Xi.P ) p.l ",
"M -.;X*X].&X&XL c.j.>X_ / ^ ` ` p.6 k #.*.} } B.!.).Z.!.@.2.~.S.C.M 4.(.(.U P J G K * m a.;.! c.;.9 ",
"2.D ;.W.*X].;.;.) J _ ^ ^ ^ R ` / i.%Xs.#.D j 5XZ.V.^.^.4Xc | 4.,X{ c b d U 0 / ) 0 Q :.u =.a.I #.f ",
"1 s W W W ;...l P ) ~ E ) oX` ` E I.F.%X&XpXf | 9.3.1.3.i e v.n a { m.eX$XE.@Xl L k .Xz.J.V 3 C #.3 ",
"B.~.2.2 j U m o ! z 0 ;.L z 0 Y 7 W.U.I.[. XN S v 9.v.+.r ,X,XQ.' e 6.$Xd.d.R.%Xu L.z.h.B.G.C ;.;Xi.",
"C.C.{.}  .'.K.8X&XV @.u W l.a.S.8 [.-X9X'. XyX; 4X2X,X3.^.^.A.^.,Xm.A *X+XP.U.Z e.B.:.:.Z.Z.V Y.+X+X",
"A.A._.Q...H.I.@X$XA %.q.u.8XN.D U 3 ..&X1X0XB.{ # o.Z.] A.!.!.!.^.^.n.-.].*Xq.m !.t.:.=.t.n ;.Y.c.OX",
"b.{ p 2 y $XP.P.}.l &XU.j V C tXR.;.l y V < 2.Q.!.1.p u 8.|.`.`./.,XN g y #.S 0.Z.t.:.X.B 2 m d.f.@X",
"a &.9XrXr.- y.}.Q I.I.W.Q ;.:XOXp.f.@X;.& N.K.G.).).`.`.$ a a o.' ' } wX'.y.o.{ h &.9.O.X.1XH.g m  .",
"+.7.W.-X3XH.2  .i.I.z.#Xz.! oXoXoXOXp.@X;.N.r.7.8.B.B.!.8.a ^.A.3.e (.N.E.(.2Xv.D D B +.=X{. X5X2.g ",
"A.q rX#XeXeXa.* x.#X#X*X*XT ~ ^ g.>Xf.+X,.D.e.m.B.B.t.~.!.b.^.^.Q.N.Y.D.Y.N.M.[ =.F.n n. X'.{.|.3XV ",
"Q.M [.8X*XeXeXo W.i.a.k.W 9 j.) g.+X*Xx.#.S.G.B.t.B.Z.t.).V.| 3.n.N.D.i.d.N. ...I.D.6.v. X XK.B.{.$.",
"A.8.M  .g l & %.v b v p 3 Q #.#.z I l 6 D 1.G.C.Z.e.G.G.@.X.&.> M M m 0.-.Z  .(.q.q. .v.{.K.D.'.e.b ",
"V.J.c 5.qX3XaX1Xn 4XyXdXsXiX).j tXtXaXpX}.$.n.V.G.m.S f D w iXaX{.'.~.Z S N (.N.Y.H.N.y w C *.6.G.; ",
"&.7.S ~.&X].3X{.6.1XsX^.4X0XiXX.].d.a.F.%XD.A 5.Z , V  XpXk K. XeXR.8X(.g (.F.s.-.r.4.[ Q.m. .d f n ",
"p X.M 8X%XE.$X}.0.0X4X6X5X0X'.y.3X$X*X$XW.,.$.M *. XpX XR.q.s 3X%X8X%X8Xc  . .A %.b 3.{.{.K.&X8X: X.",
"0.u M qX[.].&X].Q k.L.y.@.u.2.D.].(.].Y.-. .D 0X{.qX8XqXU.eXU 0.].[.].1Xn [ 5.V , e.} {.[.[.&X-XO {.",
"Z.7.S.K.&Xd.q.>.d s b M D V %.U ..H.6.Y D.eX%.G.5X{.'.'.tX'.]., 0.@.V M | n [ p r.9XC ].=XU.[.u.V  X",
"8.S f h 8 I I s.H.3X6.g  X}.D.6.k.C W rXE.].(.6. X'.~.k.m U b w f { +.n.^.J.J.X.*.7X-.D.W.U.K., Z V ",
"1 M $. X9X-X7X7X3X$X4.[ K.].Y.*X-X>.#.%XE.].1Xb {.=.d s q.R.uXN.9.!.t.8.7.8.7.J.V [.#.U K. Xp 9.<Xt.",
"{.).y.F.W.R.-X-X8X3X .%.$X].Y.x.W.;.,.E.%Xz.H.b V S.qX8X7XqX3X~.o.A.n.t.Z.B.&.7.| V k $XC 3 2 !. X&.",
"'.[.0.].W.W.[.T.&XrX..C ].Y.W.].-X,.l Q Q w.%.w  X-X-X7X&X&X1Xt.3.Z.Z.J.7.S t.X.b K.aX;X9Xe.Z t.=.*.",
"d q.%.3XW.W.].%X].&Xr.A *XE.E.[.H.y y A q. .y < K.qX7X X9X].7X5.N |  .n > n N f wX*Xx.T.8X{.u B.D D ",
"..q.l #.[.[.'.K.s.-.k 5 k #.;.#.y c wXaXqXqXaXm ~.r.*.#.U U @.Z < <X<XN.c yXaX@ 8X&X%XI.D.t.p `.6.x ",
"$X(.s.o =.h | s 0.y.s.A k C Q f $.pX X}.].'.1XQ.- C 6.D 6.S.y.@.4.{.3Xy N.N.K.#.s.-X&X-XH.5.o.i : - ",
"Y.*X3X#.m.'.K.h [.=X}.}.8X]. Xm.0.t.3X[.%X7X1XN.u.}.q.K.'.k.(.} N.{.q.U 3XY.R.[.5 '.'.j $./.Q.4.7.C.",
"@XY.$X-.u.7.~.1 K.a.[.R.'.'.'.S.X.'.L.F.R.[.7X0.u.'.'.-Xk.S.}.s  XR.j &XT.T.Y.&X%.} : w <X{.~. X XW.",
"f.a.R.@.0.7.G.= =XK.R.].&XK.}.m.M K.L.'.R.=X9Xy.:.y.s.y.y.y.m.| (.w.N.$X#XT.x.;.y ~.o.= {.Q. X'.=XF.",
"c.T.].6.{ Q.8.p B.L.>.q.s.N.e.[ 5.o.%.0.y.:.Z | S.R.S.K.k.L.S.m.&XD (.].I.%X;X6 8XwXiXB n |.].&X=X'.",
"I.].K.2.q 3.o.1.D V V g j c } $.o.7.b h D V S.f G.S.S.K.'.m.Z e.y.b (.}.&XY * rXD.D..XsX: e.k.'.7Xy.",
"s , u a v p p = } b 0.G.t.n.!.Z.*.).G.V U.U.&X2.0.G.S.K.B.2.% 0.G.| f - q w 3X$Xl.z.F.R.qXs R.&.S.h ",
"B !.A.B.Z.A.M.1.1X} %.t.7.n.Z.n.D F.K.=.R.s.(.-.-.y.r.D.X.u m.t./.{./.~.' N ].P.Y.T.I.z. X XX.X.S v "
};
