/* XPM */
static char *_7bae4cb729b4e73d42a598ab248d979gM11BvCsiqXmtvOS[] = {
/* columns rows colors chars-per-pixel */
"50 50 194 2 ",
"   c #4E0300",
".  c #470800",
"X  c #4C0800",
"o  c #550500",
"O  c #5C0300",
"+  c #550A01",
"@  c #5B0B02",
"#  c #560D0D",
"$  c #5C0D0B",
"%  c #4F1000",
"&  c #531202",
"*  c #5B1003",
"=  c #5D130C",
"-  c #590F10",
";  c #630401",
":  c #6B0501",
">  c #630B03",
",  c #6B0C05",
"<  c #630D09",
"1  c #6C0E0A",
"2  c #720603",
"3  c #7A0704",
"4  c #720A06",
"5  c #790906",
"6  c #7A070A",
"7  c #730D0A",
"8  c #7B0D0C",
"9  c #631106",
"0  c #6C1006",
"q  c #64120B",
"w  c #6C120B",
"e  c #6F1B0F",
"r  c #73130D",
"t  c #7B120E",
"y  c #741B0D",
"u  c #620D12",
"i  c #770F10",
"p  c #7F0E10",
"a  c #6B1411",
"s  c #6D1C17",
"d  c #6D151A",
"f  c #741512",
"g  c #7C1413",
"h  c #741A13",
"j  c #7C1B14",
"k  c #711719",
"l  c #7B161C",
"z  c #751D18",
"x  c #7C1C1A",
"c  c #6F271B",
"v  c #7E2217",
"b  c #73221C",
"n  c #7C231B",
"m  c #6D1D21",
"M  c #751F20",
"N  c #7A1C23",
"B  c #7D2325",
"V  c #792922",
"C  c #7E222B",
"Z  c #830B0C",
"A  c #8A0E0B",
"S  c #861006",
"D  c #84120E",
"F  c #8C130C",
"G  c #8C1B0D",
"H  c #91160C",
"J  c #93190E",
"K  c #820E11",
"L  c #8A0F11",
"P  c #831414",
"I  c #8B1414",
"U  c #831A15",
"Y  c #8B1A15",
"T  c #861619",
"R  c #8B1619",
"E  c #841C1B",
"W  c #8B1C1B",
"Q  c #921613",
"!  c #981412",
"~  c #941B14",
"^  c #9A1C15",
"/  c #921719",
"(  c #931C1B",
")  c #9A1D1C",
"_  c #84221C",
"`  c #8C221D",
"'  c #86281C",
"]  c #962214",
"[  c #992014",
"{  c #94221D",
"}  c #9B231C",
"|  c #94281E",
" . c #9B291C",
".. c #A2241D",
"X. c #A8241F",
"o. c #A1291F",
"O. c #841D22",
"+. c #8D1E21",
"@. c #841E29",
"#. c #931E21",
"$. c #9A1E21",
"%. c #A11F21",
"&. c #842323",
"*. c #882122",
"=. c #892221",
"-. c #8C2020",
";. c #8C2421",
":. c #8F2124",
">. c #8C2224",
",. c #8C2422",
"<. c #842B25",
"1. c #832A23",
"2. c #8A2825",
"3. c #8F2C26",
"4. c #8C2A25",
"5. c #84232A",
"6. c #82242A",
"7. c #89242C",
"8. c #8B242A",
"9. c #862D29",
"0. c #8D2A2C",
"q. c #922220",
"w. c #932621",
"e. c #912523",
"r. c #972620",
"t. c #912324",
"y. c #942422",
"u. c #9D2524",
"i. c #9B2523",
"p. c #952823",
"a. c #972B23",
"s. c #952825",
"d. c #942924",
"f. c #9B2821",
"g. c #9A2923",
"h. c #9B2823",
"j. c #982824",
"k. c #9E2A26",
"l. c #9A2D26",
"z. c #9F2C25",
"x. c #9C2A24",
"c. c #932529",
"v. c #9B2728",
"b. c #9E2728",
"n. c #972B29",
"m. c #972F2C",
"M. c #942C2B",
"N. c #9D2929",
"B. c #9A2C2B",
"V. c #9D2C28",
"C. c #9E2E2A",
"Z. c #9E2C2B",
"A. c #9B2F2D",
"S. c #9D2D2C",
"D. c #9B2B2A",
"F. c #8C322A",
"G. c #983027",
"H. c #94312B",
"J. c #9B3028",
"K. c #99302D",
"L. c #9F322D",
"P. c #9E312E",
"I. c #9B322D",
"U. c #872C33",
"Y. c #8C2B32",
"T. c #942D34",
"R. c #9C2D33",
"E. c #953630",
"W. c #983230",
"Q. c #9C3330",
"!. c #9C3231",
"~. c #9A3B35",
"^. c #93363C",
"/. c #903A3D",
"(. c #A22624",
"). c #A32A24",
"_. c #AB2924",
"`. c #A22629",
"'. c #A22D2B",
"]. c #A42E2C",
"[. c #A32C2B",
"{. c #AD2F29",
"}. c #A3302B",
"|. c #A53029",
" X c #A3302D",
".X c #A3322C",
"XX c #A1312D",
"oX c #A7342F",
"OX c #A3312B",
"+X c #AC312B",
"@X c #A53633",
"#X c #AA3732",
"$X c #A03339",
"%X c #A63A38",
/* pixels */
"+.>.2.n + + > &.&.@.E O.R +.;.&.b + > 7 T T #.R R Q ~ Y h o q n { | p.J.XXJ.D.D.E.e o @ r Y R +.O.@.",
"=.*._ 9 o o x x *.l g O.T t.E _ * + > g P R R L I W Y t O q <.&.y.| p.l.V.S.S.B.r o @ y j W W R O.7.",
"*.&.q O t t t E g i :.P +.E n o o $ E p P W Z I R U r @ , _ K.{ j.z.g.XX`.N.Q.r o > f g U R R W +.*.",
"&.z O U ( Q Y t 8 =.K +.+.l > w > < f g I Z L I Y 7 o > M.s.{ u.f.y.|.].XXP.j O > f g U W R E +.7.@.",
"f O 8 ( ~ Q ( D 3 P Y _ h > g =.f o @ r 8 P P U f o O &.n.w.( |.| f.[.'.P.E O > i p T O.P R W W O.5.",
"O 7 P Q ) Q Q F 3 3 E r O 0 w.T E x > > 7 D U r o @ h W.n.w.g.z.{ oX].XXU O > r p P P R T T W O.6.N ",
"t Y ) ! Q ~ A A Q P ; o r E W W d.H.1.> > y q + O h ,.B.s.{ J.} `.XXXXE @ > 7 i K I K P W R W *.d u ",
"|  .~ ^ ^ Q I ~ F t ; v W Y { k.D.e.H.n + + & X q <.;.N.W ] J.{ oXJ.j ; @ 0 i K P K K I T E ` g ; d ",
" .G J ~ F ( ) I 6 : g e.{ r.f.g.N.XX;.F.= X + @ 2.3.s.j.q.u.i.r.{ , O > 7 8 8 g K Z D P R W t : O.8.",
"]  .J ~ ) R L 8 : U w.y.| g.} f.f.S.I.1.+ + $ v 9.` p.V.(.u.j.W > O > 7 8 6 i 8 6 8 Y U ` g 2 P :.M.",
"] J ] J Y Y t ; t q.N.j.d.| f. .f.d.z o o z x 2.n.;.r.k.`.q.E > o + 1 4 2 6 K 8 P P P W t : P r.c.Z.",
"[ ] ] ~ Y t ; r n.q.( g.a.| } W ;.v @ @ d E *.M.4.s.j.j.j.Y , o # @ 1 6 6 6 p p U P U 4 : U } f.u.v.",
"^ } ] W r ; t 4.` y.{ | ` ` a.Q.9.+ o f &.>.H.;.W e.j.B.;.0 O 9 $ O ; 7 7 6 8 P U g r 2 ` [ } } j.j.",
"} { Y 7 ; r d.y.p.} { | G.I.n.n + + z >.>.d.;.W w.n.B.` , ; , f f 1 ; : 7 6 i P 8 4 : ` ( } o.).y.s.",
"{ ;.j ; t n.| r.} { f.g.d.' a     z 0.=.` ( R ;.B.m.&.1 O , g P P i 1 < 1 i 7 g 7 : g.( ~ ..{.| { e.",
"' r ; t j.} ) }  . .{ Y U 9   # # V &.:.q.R W n.m.2.w O 7 P I Q R R i ; O > 1 : : p.f.~ o.+XQ ] ;.M.",
"e O f d.) ) f.{ Y W { _ < o < $ + b >.W E #.c.M.F.a O 1 U Q Q Q I ( P g > o @ > d.{ ~ _.{.^ ^ { M.0.",
"+ y { ) ( } ( g.J.s.2.s o $ x x o a x x :.c.M.>.r o e W Y Q Q ! ( I I U f $ @ 3.W Y +X{.^ } ] d.0.l ",
"r ' { ) | y.` W ` E ,   ; x +.R E ; > &.>.2.2.h ; r ( W R } ) ( / W P j > : ` { r.+X} ....( y.M.M < ",
"U { } r.{ U E ;.a.h O @ j ;.#.#.;.f O O z 1.e O 7 W / / ) ( ) ( R E *.: ; E s.`.). . .(.} k.B.&.> - ",
"] { { { q.W ` ;.f o ; E w.W ( $.R :.r o @ 9 > 0 / #.( $.{ ( i.W +.x , O t { +X_.} [  . .{ s.*.; i O.",
"{ | s.` W ` ;.j o 0 _ s.w./ ) / #.M.&., + o 0 ` / $.%.$.#.D.q.+.E w o e z.).^ ~ o. .} { M.U ; i 5.7.",
"g.` ` ` ` ;.z O 1 >.s.W ( i.) i.D.;.v > @ e ` I $.( $.$.v.s.E *.w o j K.k.~ ~ } } } ] G.n o 7 8.7.8.",
"W ` ;.d.e.f O w ,.s.q.) y.q.) j.W &.0 O , U Y } ) $.$.b.i.c.&.> o w a.j.( } } } o.] p.j @ > U +.O.Y.",
"U w.` ;.f o 1 4.c.W / j.q.q.z.{ ;.E O > W ) ( ) %.%.`.`.i.E < o , E { { } f.} } ) r.U ; : t +.T O.l ",
"` E d.j @ w 0.s.W #.`.q.y.V.` d.' O > j q.(.) / %.%.`.u.g ; O q ` { ( } ) ) ( Y v.g O , 8 W R R O.l ",
"' 1.h O ; m.s.q.$.b.#.b.z.p.H.v ; 1 W { R ( ( $.b.b.v.7 ; o f >.{ } } ( ) / R n.f > ; i W P F ( p N ",
"&.n O O =.B.i.j.b.(.].j.s.K.y O , t P R R ` u.u.v.E f , O z M.q.{ ( ] } ) ) e.x @ O g P E D ` E l 0.",
"n o ; E V.v.b.i.I } `.'.n.r > , 8 P / #.#./ +.c.+.r +   a W c.$.) ~ { ( ( { t O # o f +.Z R _ t 6.8.",
"+ o E %XZ.'.q.) r.'.N.y.h O ; g R q.W R #.+.E O.w > o q ; P ( #.( $.E ` r.8 ; , > O > g P E t _ 9.M ",
"+ V %X`.`.j.j.u.).j.;., O r E R U R W #./ +.:.w O O &.d.: 4 ,.R i.L ( | U , , E T i 1 O 7 g g ;.s # ",
"F.~.B.].'.`.XXj.{ ` w @ < z T P T R / K W T.f > O 1.Q.r.W 2 7 4.K / u.W , , U R R T >.a ; f ' x @ # ",
"I.I.S.j.j.D.q.w.,.r @ + @ h g g P K T +.T.N @ O x I.} { }.| 7 : P s.d., : Y Y ( R { R f 2 , f @ d /.",
"{ ` s.S.c.q.D.M.f @ @ + @ o 1 g L +.c.O.f ; o _ I.OXf.{.f.y.d.7 t { 4 : U G Y Y ( W t U ' 0 o q /.^.",
"y.N.N.D.j. XK.E O > w a 1 O ; O.W #.O.x 1 O E @Xg.| '.o.(.].N.;.r : t Y Y ` Y Q ) Q Y ` &.1 ; x N 6.",
"V.q.j.q.q.P.E O < f w g f f ; 7 O.O.E 1 ; E #X(._.{.).f.(.#./ q.: 5 Y { { Y F Q Q Q d._ > ; g T.T.^.",
"g.j.s.N.@XW O , z t g 8 U g g > 1 O.< O U '._._.....f.f.(.`.j.8 t f./ I ^ J J Q }  .` > ; E T.$XT.Y.",
"j.l.j.w.g ; 7 x 8 g l g P E >.l < @ O _ .X)._.X.(...`.u.'.j.8 4 ( Q ~ Q ! ~ Q } { t > O U !.R.c.8.Y.",
"w.P.s.g : , R U g E g g R +.x a o o _ J.f.o.} ^ ^ (.i.i.` : 2 { ~ Q ~ ^ ^ ! ~ j.j O ; 3.R.M.c.T.Y.Y.",
"n.4.j ; : E R P E f g T ;.E j > @ z K.J.} [ } o.( ~ j.P O r { F Q ] ^ ^ ! ) r._ 9 o f W.B.n.n.=.7.Y.",
"3.0 O r T R P E P T T =.E x g ; r K.V.f.).f.l.l.j.K.h ; t ` J J ^ ^ H [ } { ' + . * 0.S.N.q.W v.Y.T.",
"e O , U W R R P T U ;.x x E ; 8 s.].(.(.).} z.{ ;.7 O , Y ~ J J H ^ ^ } j.v * & & X f M.q.q.b.t.7.U.",
"o 9 g W W R P W #.T E x v @ 6 u.`.(.(.(.(.N.N.N.f ; , Y G H J J ^ ..^ [ ' 9 X c V $ o 0 B.r.#.E C m ",
"9 j U W U E T #.W T _ z o f B.`.(._.(.u.} / R 8 > : D ( Q F J } ..! } | > + n 9.2.r o o f 4.j >.M - ",
"j j E U W E W T E E z @ h n.D.q.(.u.(./ / u.g 4 2 Y ( F J [ } ^ !  .| , O j s.N.#.U 3., o * v V # # ",
"U _ W W W W R E E x o z M.s.W b.j.i.R W R P 4 2 Y Q S F } ^ Q )  .{ > O y d.r.`./ q.d._ @ + + o - m ",
"P { Y W W / E _ z @ h 2.;.#.Z.i.s.W =.>.g 7 4 P D S S F ~ ^ ~ ) ;.: O j d.p.j.} f.f.{ 4.H.< o # d N ",
"` U ` W ( +.;.z o @ 2.M.;.s.e.#.q.W ;.h > ; t I G F J ~ ^ ~ ( q.w O h ` p.}.y.g.f.} y.M.x O @ w N C ",
"` _ E ` ,.2.c o < &.&.;.+.:.=.q.W c.h $ o 1 g R Y J ~ ] ~ | _ 0 O z 4.y.K.J.k.k.} z.p., + @ w x 6.N ",
"E E ` =.O.a + + z <.` _ E E *.e.+.*.< o , h U I I I F ~ Q Y 0 o w ,.m.j.J.J.z.k.r.g.U > * q x O.@.6."
};
