/* XPM */
static char *_a4d72f822f84debbd432a8184c7e8e3iqAgniCq9NAis0pv[] = {
/* columns rows colors chars-per-pixel */
"50 50 188 2 ",
"   c #6D0F00",
".  c #6D1500",
"X  c #741500",
"o  c #7B1600",
"O  c #761B00",
"+  c #7C1C00",
"@  c #772004",
"#  c #7D2301",
"$  c #821D00",
"%  c #891E00",
"&  c #842201",
"*  c #8B2401",
"=  c #832A03",
"-  c #8D2A03",
";  c #812108",
":  c #82290A",
">  c #8C2C0A",
",  c #922501",
"<  c #9A2504",
"1  c #932B03",
"2  c #992E02",
"3  c #952608",
"4  c #942E0B",
"5  c #992D09",
"6  c #8E320E",
"7  c #953104",
"8  c #9C3304",
"9  c #94330C",
"0  c #9C330C",
"q  c #96390E",
"w  c #9D3A0D",
"e  c #902D10",
"r  c #953413",
"t  c #9B3513",
"y  c #953816",
"u  c #9C3B13",
"i  c #94391C",
"p  c #9C3B18",
"a  c #A43304",
"s  c #AA3305",
"d  c #AC3A05",
"f  c #A3350D",
"g  c #AB340B",
"h  c #A33B0D",
"j  c #AC3B0D",
"k  c #B2370D",
"l  c #B23B0E",
"z  c #A13614",
"x  c #AC3612",
"c  c #A43B14",
"v  c #AC3C14",
"b  c #A43C19",
"n  c #AB3D1A",
"m  c #B43C13",
"M  c #B93F16",
"N  c #B33E1A",
"B  c #A43F23",
"V  c #9F4014",
"C  c #9E401C",
"Z  c #AD430F",
"A  c #B5430D",
"S  c #BA460E",
"D  c #BA490F",
"F  c #A54114",
"G  c #AC4315",
"H  c #A4421B",
"J  c #AB431B",
"K  c #A54A1B",
"L  c #AD481D",
"P  c #B44415",
"I  c #B94514",
"U  c #B54915",
"Y  c #BC4C15",
"T  c #B4441B",
"R  c #BB451C",
"E  c #B54B1C",
"W  c #BB4C1C",
"Q  c #BE5115",
"!  c #B4501F",
"~  c #BD521C",
"^  c #BF581E",
"/  c #974120",
"(  c #A54522",
")  c #AC4522",
"_  c #A74927",
"`  c #AD4A23",
"'  c #AB4D2A",
"]  c #B34421",
"[  c #BA4621",
"{  c #B44C23",
"}  c #BB4C23",
"|  c #B44729",
" . c #BA4728",
".. c #B34C29",
"X. c #BB4D29",
"o. c #B55124",
"O. c #BD5726",
"+. c #BD5223",
"@. c #BD5A24",
"#. c #B75129",
"$. c #B4522A",
"%. c #BC502A",
"&. c #B95728",
"*. c #B9572A",
"=. c #BE5528",
"-. c #BF542A",
";. c #BD562B",
":. c #BE572A",
">. c #B9512E",
",. c #BA542C",
"<. c #B9562C",
"1. c #BD552E",
"2. c #BC532B",
"3. c #BD5928",
"4. c #BE5828",
"5. c #BD592E",
"6. c #B65631",
"7. c #BE5730",
"8. c #BE5A31",
"9. c #C14E15",
"0. c #C0461D",
"q. c #C14E1C",
"w. c #C35116",
"e. c #C85417",
"r. c #C05119",
"t. c #C3531C",
"y. c #C8551E",
"u. c #C6581D",
"i. c #C14722",
"p. c #C24B23",
"a. c #C04A26",
"s. c #C24D23",
"d. c #C54D2A",
"f. c #C05624",
"g. c #C05727",
"h. c #C45424",
"j. c #C55726",
"k. c #C35423",
"l. c #C95625",
"z. c #C75926",
"x. c #C45A24",
"c. c #C95B25",
"v. c #C4502B",
"b. c #C05728",
"n. c #C35728",
"m. c #C55629",
"M. c #C65729",
"N. c #C2572D",
"B. c #C2552B",
"V. c #C8542B",
"C. c #C8572B",
"Z. c #C9562A",
"A. c #C5592B",
"S. c #C75B2A",
"D. c #C05C2B",
"F. c #C45A2B",
"G. c #C9592B",
"H. c #CB5B2B",
"J. c #C85D29",
"K. c #CA5B2E",
"L. c #C85C2D",
"P. c #CB5C2E",
"I. c #CD5F2C",
"U. c #CF5F2F",
"Y. c #CA5C2B",
"T. c #C35531",
"R. c #C95732",
"E. c #C35C33",
"W. c #C35B33",
"Q. c #C85830",
"!. c #CA5F31",
"~. c #CE5F32",
"^. c #C95E34",
"/. c #CA5C33",
"(. c #CB5F38",
"). c #C86127",
"_. c #C5622D",
"`. c #C9612E",
"'. c #CC602F",
"]. c #D1622C",
"[. c #C76033",
"{. c #C56132",
"}. c #C96031",
"|. c #CB6233",
" X c #CC6232",
".X c #CD6233",
"XX c #C4623F",
"oX c #C96438",
/* pixels */
"{ X.X.{ $ ; b  .[ a.M R T X.{ >.' & + F E R W W U Q Y +...# - L { @.+.&..XG.V.Q.E.` # # V T } [ { ..",
"X.X.{ 4 $ , X.{ d.m N [ R a.X...> # w G j W W P U Q E G & - ' { B.3.+.}.m.V.G.^.) & # V L } X.R +.] ",
"{ X.4 * T G f [ N N d.N [ [ { * X y L U E W s I R E ` # & <.:.{ D.! m.P.I.F.|.o.# & u F T [ W W { *.",
"B.0 * { +.P P m x a.N [ X.T 3 t : > L G U d l I W V @ = <.:.+.W 3.+.z.].m.!.&.+ + u n T X.R R W } ] ",
"0 * Z f.Q A U I x N N  .] < J N.c o 4 J g l A W K O + ` [.o.W G.x.+.'.x.}.*.# # h v T [ p.R q.I W o.",
"* h Y Q ~ D D d j k N ] , 0 2.F J ] % 3 c I E H O # H #.:.W h.H.} G.Y.`.3.& & b P m [ [ N R 0.W ] ` ",
"J +.t.Y w.w.d l q.v c 3 z X.T P t.C.v.% 5 { C # X ( #.} N.W l.l.l.H.|.o.& * v m R N m I I W T X.{ 9 ",
"f.t.w.e.Y D U Y U m % T } G W G.h.~ R...$ : : . y 8.E +.} W Z.W C..X*.& - F k I T T l I I R [ } > 9 ",
"t.Y r.Y D Y U W F , G W W k.h.h.l.C.B.W.i . @ > #.v.+.+.t.} p.v.R.n $ * c M l M m g N I I } E 1 F o.",
"e.9.r.P P k.Y j * c ~ +.h.H.h.q.m.2.(.6.: @ 6 ] 2.s.a.s.z.k.X.T.z $ 1 T m k k M k M R R R I 1 w @.@.",
"w.w.Y +.W E G * h +.+.@.f.h.h.G.2.1._ # X b 2.a.v.B.[ C.h.X.{ B ; e v g l s m l M m R X.] 1 7 x.@.@.",
"t.r.t.W W v % v ~ ~ f.^ t.x.s.B.<.$.: O z } W s.B.I C.H.t.T J $ X t n g s M l m M M [ n 1 c ^ x.^ ^ ",
"~ r.t.W F % c f.~ ~ h.s.f.f.B.E.$.= o b X.p.h.d.T s.G.N.] n & - > o 5 v m g m M M R T < G ~ x.t.).^ ",
"+.f.U A * c n.+.t.h.l.h.B.2.E...# X b N.X.d.d.v I G.Q.T b % - c ` 9 o f v m v N N v * T f.q.h.x.@.^ ",
"+.o.G & h +.f.t.q.s.l.l.X.X.( $ o ` N.} d.] N X.R.T.{ J & - E G U ! , % n n N v n * E z.U c.c.~ U ! ",
"+.h & h x.^ +.h.l.l.0.P T b o o t  .{ { d.B  .B.R.#.c # - ! U U G U } 2 * z z J , U z.U u.c.r.P @.@.",
"H & j z.t.^ Q +.I R N ] t $ > * , | >.| N  .R.N.d.J & 7 L Z ~ Q I W R I z + = - G F.U Q '.Q I t.+.3.",
"$ J m.q.Y U ~ W 2.X.T.t $ t ] ] * z | N  .X.#.:.c $ 9 E G ~ U Y 9.W I [ { 9 # ) D.U u.c.t.A t.f.n.` ",
"v X.+.X.z.x.~ Y [ #.t o - T k.W ] % 5 | X.B.X.H & 9 ~ U W ~ t.Q q.W ] { u $ G x.E J.J.u.Q +.~ n.$.9 ",
"W k.N.N.W U P [ N.J + * ..+.} W N.z o * } { B & 7 +.Y Y h.q.~ h.+.E #.t $ J +.u.).x.@.x.t.+.F.3.9 # ",
"k.+.} } W I T 1.p X - { W W q.q.W E 8 o & p & 9 k.t.Y u.k.k.t.W E <.H $ h c.u.c.).u.x.u.~ +.+.w - K ",
"h.k.+.W X.] X.) + - { F.W q.q.r.W F.+.q + O 9 3.k.w.l.t.t.} N.{ 6.H o h x.c.c.Q Q ^ x.~ ~ :.0 - o._.",
"+.s.+.} X.[ b o t <.D.E W y.W Q ).! o.F # q o.Y W c.t.h.u.+.X.#.( + h z.c.9.U Y t.x.W E F.8 * B.! ! ",
"[ W o.B.} b $ t 1.+.~ +.k.f.Q x.+.! F $ 9 o.+.~ u.~ h.x.h.B.X.H X 9 +.l.w.9.Y h.u.^ +.@.1 % c } ~ ! ",
"I +.{ #.b $ 0 B.k.P } k.+.k.x.^ @.#.+ * } t.~ +.s.h.t.A.F.&.b X * o.+.W Y h.h.u.Y f.:., * N W 0.E J ",
"[ 2.&.c + 0 ^.v.W U l.k.} F.! _.*.o $ E t.l.t.W A.k.c.+.J 7 X 4 #.W ~ ~ h.h.Y R k.} - * n P p.R [ F ",
"X.2.b $ 4 Q.+.} h.G.h.h.A.+._.` + - { v.h.9.l t.k.F.n.#.p + 9 X.a.} h.W f.q.I k.+.1 * J T [ M 0.I G ",
"#.) $ - B.f.U z.z.m.h.f.h.I.) & > H P v I q.q.c.W +.L u + t <.2.W h.k.h.h.I +.+.1 & L E R R 0.R n ] ",
") & - #.n.W c.m.G n.F.z.I.T o 1 n G P W } h.l.I W K q X 9 N.+.E q.h.q.s.q.+.W 1 o $ b T R I R N F $.",
"& $ X.Q.f.P.f.W +.@.}.`.F $ 5 ] [ X.+.} k.X.R T G - X = 1 n } h.q.s.0.W q.W 5 - 9 & * G U [ m n ..$.",
"# ' oXV.N.h.W k.F.x.o.w + 9 ] [ R W s.W I J L o.9 X H 8.0 1 s.I 0.Y 0.h.X.f 1 ` { F 7 , z P I [ #.p ",
"6.{.Q.H.C.G.f.z.E ! V & 6 ..T R U W R M I +.$.7 X H oX@.E 2 g h.W U k.f.f 1 G E W G +.c % z { 1.t X ",
"E.E.n.x.A.x.f.W +.( + X r ) T T M m R [ N.#.7 X u |.x.U h.+.8 7 I #.B.c , I I q.W W { G 8 , ..t + ' ",
">.E.+.n.t.f.k.x.H & ; > + 4 n c N I [ +.{ 9 X V [.).w.).`.c.x.0 0 8.v 7 P W Y Y Y W I h } F $ & ..XX",
":.{ n.n.h.z.E.L + 4 b z z % 5 X.[ i.{ X.u X F _.).x.J.x.@.f.G.:.0 1 8 I t.Y q.A q.Y d W 1.L $ b $...",
"F.F.+.+.o.x.` o 4 ) g x z z , x a.] X.b o H _.).x.^ F.x.c.h.W 2.c 2 W t.q.Y A A D l W k.c & c >.T.5.",
"~ E +.1.{...% r N x x x x N N < c >.H X G .Xc.c.).x.x.x.t.+.z.G 8 E W A Y A A 9.D y.G.H $ u T.N.8.8.",
"Y.h.n.<.( & 4 ] N k N N N N a.N 4 r + L .XH.c.f.^ ^ u.x.H.z.G 7 W t.Y ~ S S 9.Y y.W w & 0 T.}.B.1.<.",
"+.A.n.L & r  .T 0.x x N N d.N N : X F }.].u.U ~ f.f.c.x.W h 2 E ~ Y Y Y Y t.Q ~ m.8 + b Q.^.X.A.5.7.",
"A.:.{ - 4 { [ M M M N N i. .N t + F E.z.U W Q +.~ Y t.~ - 7 Y ~ U w.Q 9.w.Y W F.u + t 8.N.G.G.} ] { ",
"T.L = 0 R 0.R N x M M 0.N [ ] * c F.I.c.f.f.J.@.x._.o.& 1 f.I 9.t.w.D 9.t.x.x.p . # ' 1.G.h.T X.<.6.",
"H & 1 T s.R R m N i.R R [ c - c m.G.z.A.A.!.x.x.^ E & 7 ~ P 9.w.9.D e.u.t.+.w X # # ( 8.+.T T :.8.{.",
"+ > T [ R R I [ d. . .T ] * 0 N.l.l.Y.f.h.c.q.+.! # & E E w.Y D 9.e.u.Q ^ h O q 6.- X p T.#.B.:.L $.",
"9 L X.R R 0.m a.M N ] ) & w N.A.h.x.Y.f.f.W } } 1 & G W Y D Q Q u.Q ~ F.w + 9 <.<.L & + _ 8.E G 6.q ",
"` ) R R  .R R R M n ..; 9 E.F.k.A.z.f.W I q.W 0 1 E W ~ 9.9.9.e.w.Q F.G X 7 8.3.o.P 1.4 X y L 8.6 O ",
"v I W [ R [ d.I J ..& y E.#.a.k.f.x.W T U k.s 1 [ R A A 9.e.e.w.~ ).F + - *.5.+.Y ~ +.F.- . > > + / ",
"R p.R s.R a.N ) ) * 1 8.2.} W m.m.} I o.{ f 2 P U A a A w.9.9.w.+.F o 1 N.x.B.W +.c.r.h.F.y . O p | ",
"R W W W a.[ | ' & & 1.:.X.v.k.k.f.T } X.f % G Y I A I 9.w.9.9.u.G X 7 +.o.n.n.W m.t.h.h.n.H X i ` ] ",
"W } E W [ T.( & > ..2.X.E [ } +.+.{ ..4 $ 0 W A U 9.r.Y Y t.^ F X q +.o.A.I.o.z.x.t.u.~ q # 4 J ..E ",
"E } E } X.z & # ] >.T E T T X.+.o.+.t $ 4 ] U S Y Y Y ~ Q Q F + 9 *.N.k.h.m.f.f.+.Y.Q q # = b { { { "
};
